<?xml version="1.0" encoding="utf-8"?>
<!-- Generator: Adobe Illustrator 26.0.0, SVG Export Plug-In . SVG Version: 6.00 Build 0)  -->
<svg version="1.1" id="Layer_1" xmlns="http://www.w3.org/2000/svg" xmlns:xlink="http://www.w3.org/1999/xlink" x="0px" y="0px"
	 width="314px" height="314px" viewBox="0 0 314 314" style="enable-background:new 0 0 314 314;" xml:space="preserve">
<style type="text/css">
	.st0{fill:none;stroke:#666666;stroke-width:6;stroke-miterlimit:10;}
	.st1{fill:#666666;}
	.st2{fill:#0077C8;}
	.st3{fill:#FFFFFF;}
	.st4{font-family:'OpenSans-Semibold';}
	.st5{font-size:12px;}
	.st6{font-size:10px;}
	.st7{fill:none;stroke:#666666;stroke-width:2;stroke-linecap:round;stroke-linejoin:round;stroke-miterlimit:10;}
	.st8{fill:#59A4CE;}
	.st9{font-family:'MyriadPro-Regular';}
	.st10{font-size:7.1796px;}
	.st11{fill:#CECECE;}
	.st12{fill:#3A3A3A;}
	.st13{font-family:'OpenSans-Bold';}
	.st14{font-family:'OpenSans-Regular';}
	.st15{font-size:7.8883px;}
	.st16{fill:none;}

	<!-- Fade buttons on mouseover. -->
	.kw_fade{opacity:1;}
	.kw_fade:hover{opacity:0.7;}

	<!-- show/hide. -->
	.kw_show{visibility:visible;}
	.kw_hide{visibility:hidden;}

	<!-- Change cursor to hand pointer. -->
	.kw_cursor{cursor:default;}
	.kw_cursor:hover{cursor:pointer;}

	<!-- Here are the webfonts so OpenSans works. -->
	@font-face {
		font-family: 'OpenSans';
		font-style: normal;
		font-weight: 400;
		font-display: swap;
		src: local('Open Sans'), local('OpenSans'), url(https://fonts.gstatic.com/s/opensans/v17/mem8YaGs126MiZpBA-UFVZ0b.woff2) format('woff2');
		unicode-range: U+0000-00FF, U+0131, U+0152-0153, U+02BB-02BC, U+02C6, U+02DA, U+02DC, U+2000-206F, U+2074, U+20AC, U+2122, U+2191, U+2193, U+2212, U+2215, U+FEFF, U+FFFD;
	}

	@font-face {
		font-family: 'OpenSans-Italic';
		font-style: italic;
		font-weight: 400;
		font-display: swap;
		src: local('Open Sans Italic'), local('OpenSans-Italic'), url(https://fonts.gstatic.com/s/opensans/v17/mem8YaGs126MiZpBA-UFVZ0b.woff2) format('woff2');
		unicode-range: U+0000-00FF, U+0131, U+0152-0153, U+02BB-02BC, U+02C6, U+02DA, U+02DC, U+2000-206F, U+2074, U+20AC, U+2122, U+2191, U+2193, U+2212, U+2215, U+FEFF, U+FFFD;
	}

	@font-face {
		font-family: 'OpenSans-SemiBold';
		font-style: normal;
		font-weight: 600;
		font-display: swap;
		src: local('Open Sans SemiBold'), local('OpenSans-SemiBold'), url(https://fonts.gstatic.com/s/opensans/v17/mem5YaGs126MiZpBA-UNirkOUuhp.woff2) format('woff2');
		unicode-range: U+0000-00FF, U+0131, U+0152-0153, U+02BB-02BC, U+02C6, U+02DA, U+02DC, U+2000-206F, U+2074, U+20AC, U+2122, U+2191, U+2193, U+2212, U+2215, U+FEFF, U+FFFD;
	}

	@font-face {
		font-family: 'OpenSans-SemiboldItalic';
		font-style: italic;
		font-weight: 600;
		font-display: swap;
		src: local('Open Sans SemiBold Italic'), local('OpenSans-SemiBoldItalic'), url(https://fonts.gstatic.com/s/opensans/v17/memnYaGs126MiZpBA-UFUKXGUdhrIqM.woff2) format('woff2');
		unicode-range: U+0000-00FF, U+0131, U+0152-0153, U+02BB-02BC, U+02C6, U+02DA, U+02DC, U+2000-206F, U+2074, U+20AC, U+2122, U+2191, U+2193, U+2212, U+2215, U+FEFF, U+FFFD;
	}

	@font-face {
		font-family: 'OpenSans-Bold';
		font-style: normal;
		font-weight: 700;
		font-display: swap;
		src: local('Open Sans Bold'), local('OpenSans-Bold'), url(https://fonts.gstatic.com/s/opensans/v17/mem5YaGs126MiZpBA-UN7rgOUuhp.woff2) format('woff2');
		unicode-range: U+0000-00FF, U+0131, U+0152-0153, U+02BB-02BC, U+02C6, U+02DA, U+02DC, U+2000-206F, U+2074, U+20AC, U+2122, U+2191, U+2193, U+2212, U+2215, U+FEFF, U+FFFD;
	}

	@font-face {
		font-family: 'OpenSans-BoldItalic';
		font-style: italic;
		font-weight: 700;
		font-display: swap;
		src: local('Open Sans Bold Italic'), local('OpenSans-BoldItalic'), url(https://fonts.gstatic.com/s/opensans/v17/memnYaGs126MiZpBA-UFUKWiUNhrIqM.woff2) format('woff2');
		unicode-range: U+0000-00FF, U+0131, U+0152-0153, U+02BB-02BC, U+02C6, U+02DA, U+02DC, U+2000-206F, U+2074, U+20AC, U+2122, U+2191, U+2193, U+2212, U+2215, U+FEFF, U+FFFD;
	}

	@font-face {
		font-family: 'OpenSans-Extrabold';
		font-style: normal;
		font-weight: 800;
		font-display: swap;
		src: local('Open Sans ExtraBold'), local('OpenSans-Extrabold'), url(https://fonts.gstatic.com/s/opensans/v17/mem5YaGs126MiZpBA-UN8rsOUuhp.woff2) format('woff2');
		unicode-range: U+0000-00FF, U+0131, U+0152-0153, U+02BB-02BC, U+02C6, U+02DA, U+02DC, U+2000-206F, U+2074, U+20AC, U+2122, U+2191, U+2193, U+2212, U+2215, U+FEFF, U+FFFD;
	}

	@font-face {
		font-family: 'OpenSans-ExtraboldItalic';
		font-style: italic;
		font-weight: 800;
		font-display: swap;
		src: local('Open Sans ExtraBold Italic'), local('OpenSans-ExtraBoldItalic'), url(https://fonts.gstatic.com/s/opensans/v17/memnYaGs126MiZpBA-UFUKW-U9hrIqM.woff2) format('woff2');
		unicode-range: U+0000-00FF, U+0131, U+0152-0153, U+02BB-02BC, U+02C6, U+02DA, U+02DC, U+2000-206F, U+2074, U+20AC, U+2122, U+2191, U+2193, U+2212, U+2215, U+FEFF, U+FFFD;
	}

</style>
<g id="InfoLayer">
	<g>
		<g>
			<line class="st0" x1="86.3" y1="176.9" x2="86.3" y2="113.5"/>
			<g>
				<polygon class="st1" points="93.8,174.7 86.3,187.6 78.9,174.7 				"/>
			</g>
		</g>
	</g>
	<g id="pick">
		<g>
			<path class="st2" d="M279.7,89.1c0,3.3-2.7,6-6,6h-92c-3.3,0-6-2.7-6-6V58.4c0-3.3,2.7-6,6-6h92c3.3,0,6,2.7,6,6V89.1z"/>
		</g>
		<text transform="matrix(1 0 0 1 215.9469 76.7672)" class="st3 st4 st5">Pick</text>
	</g>
	<g id="picklist">
		<g>
			<text transform="matrix(1 0 0 1 205.5578 261.6579)" class="st1 st4 st6">Pick List</text>
		</g>
		<g>
			<g>
				<path class="st1" d="M243.7,208.4c0-0.1,0-0.2-0.1-0.3c0-0.1-0.1-0.2-0.2-0.3c0,0,0,0,0,0l0,0c0,0,0,0,0,0l-4.7-4.7c0,0,0,0,0,0
					c-0.1-0.1-0.2-0.2-0.3-0.2c-0.1-0.1-0.3-0.1-0.4-0.1h-28.4c-0.6,0-1,0.5-1,1v41.6c0,0.6,0.5,1,1,1h33c0.6,0,1-0.5,1-1
					L243.7,208.4C243.7,208.4,243.7,208.4,243.7,208.4z"/>
				<g>
					<polygon class="st3" points="241.8,244.4 210.5,244.4 210.5,204.6 236.8,204.6 236.8,209.4 241.8,209.4 					"/>
				</g>
			</g>
			<path class="st1" d="M237.6,228.2h-21.4c-0.5,0-1-0.4-1-1s0.4-1,1-1h21.4c0.5,0,1,0.4,1,1S238.1,228.2,237.6,228.2z"/>
			<path class="st1" d="M237.6,233.6h-21.4c-0.5,0-1-0.4-1-1s0.4-1,1-1h21.4c0.5,0,1,0.4,1,1S238.1,233.6,237.6,233.6z"/>
			<path class="st1" d="M237.6,217.3h-21.4c-0.5,0-1-0.4-1-1s0.4-1,1-1h21.4c0.5,0,1,0.4,1,1S238.1,217.3,237.6,217.3z"/>
			<path class="st1" d="M224.8,211.5h-8.6c-0.5,0-1-0.4-1-1s0.4-1,1-1h8.6c0.5,0,1,0.4,1,1S225.3,211.5,224.8,211.5z"/>
			<path class="st1" d="M237.6,222.7h-21.4c-0.5,0-1-0.4-1-1s0.4-1,1-1h21.4c0.5,0,1,0.4,1,1S238.1,222.7,237.6,222.7z"/>
			<path class="st1" d="M237.6,238.8H233c-0.5,0-1-0.4-1-1s0.4-1,1-1h4.6c0.5,0,1,0.4,1,1S238.1,238.8,237.6,238.8z"/>
		</g>
	</g>
	<g id="so">
		<text transform="matrix(1 0 0 1 58.1672 261.3347)" class="st1 st4 st6">Sales Order</text>
		<g>
			<rect x="70.3" y="204.6" class="st7" width="31.8" height="40"/>
			<line class="st7" x1="86" y1="210.7" x2="97.2" y2="210.7"/>
			<line class="st7" x1="86" y1="215.1" x2="97.2" y2="215.1"/>
			<line class="st7" x1="76.6" y1="225.2" x2="97.2" y2="225.2"/>
			<line class="st7" x1="76.6" y1="230.4" x2="97.2" y2="230.4"/>
			<line class="st7" x1="76.6" y1="235.3" x2="97.2" y2="235.3"/>
		</g>
		<path class="st1" d="M77,214.7c0.1-0.1,0.2-0.2,0.3-0.3c1.6-1.6,3.2-3.2,4.8-4.8c0.3-0.3,0.7-0.5,1.1-0.3c0.7,0.2,1,1.1,0.5,1.7
			c0,0-0.1,0.1-0.1,0.1c-1.9,1.9-3.9,3.9-5.8,5.8c-0.6,0.6-1.1,0.6-1.7,0c-0.9-0.9-1.8-1.8-2.6-2.6c-0.3-0.3-0.4-0.8-0.2-1.2
			c0.2-0.4,0.6-0.6,1-0.6c0.3,0,0.5,0.2,0.7,0.4c0.6,0.6,1.2,1.2,1.8,1.8C76.9,214.5,76.9,214.6,77,214.7z"/>
	</g>
</g>
<g id="trigger1" class="kw_cursor kw_fade">
	<animate attributeType="XML" xlink:href="#trigger2" attributeName="class" to="kw_show kw_cursor" begin="trigger1.click"/>
	<g id="oe">
		<g>
			<path class="st8" d="M138.3,101c0,3.3-2.7,6-6,6h-19.4c-3.3,0-6-2.7-6-6v-5.9c0,0,0,0,0,0h31.3c0,0,0,0,0,0V101z"/>
		</g>
		<g>
			<path class="st2" d="M138.3,95.1H40.3c-3.3,0-6-2.7-6-6V58.4c0-3.3,2.7-6,6-6h92c3.3,0,6,2.7,6,6L138.3,95.1
				C138.3,95.1,138.3,95.1,138.3,95.1z"/>
		</g>
		<text transform="matrix(1 0 0 1 52.366 76.7672)" class="st3 st4 st5">Order Entry</text>
		<text transform="matrix(1 0 0 1 114.6993 102.9856)" class="st3 st9 st10">more</text>
	</g>
</g>
<g id="trigger2" class="kw_hide kw_cursor">
	<animate attributeType="XML" xlink:href="#trigger2" attributeName="class" to="kw_hide" begin="trigger2.click"/>
	<g id="pick_00000091708837235308110660000006652127327449929089_">
		<g>
			<path class="st11" d="M290.9,273.3c0,3.3-2.7,6-6,6H112.7c-3.3,0-6-2.7-6-6V95.1c0,0,0,0,0,0h178.2c3.3,0,6,2.7,6,6V273.3z"/>
		</g>
		<text transform="matrix(1 0 0 1 117.6935 114.2568)" class="st12 st13 st5">Order Entry</text>
		<g id="pick_00000144312744403683023380000012975628024753563569_">
			<g>
				<g>
					<path class="st12" d="M290.9,273.4c0,3.2-2.7,5.9-6,5.9h-27.6c-3.3,0-6-2.7-6-5.9s2.7-5.9,6-5.9h27.6
						C288.2,267.5,290.9,270.2,290.9,273.4z"/>
				</g>
			</g>
		</g>
		<text transform="matrix(1.0434 0 0 1 261.3332 275.7162)" class="st3 st14 st15">close</text>
		<rect x="119.2" y="123.5" class="st16" width="161.4" height="144"/>
		<text transform="matrix(1 0 0 1 119.1723 131.0996)"><tspan x="0" y="0" class="st14 st6">Lorem ipsum dolor sit amet, </tspan><tspan x="0" y="12" class="st14 st6">consectetuer adipiscing elit, sed </tspan><tspan x="0" y="24" class="st14 st6">diam nonummy nibh euismod </tspan><tspan x="0" y="36" class="st14 st6">tincidunt ut laoreet dolore magna </tspan><tspan x="0" y="48" class="st14 st6">aliquam erat volutpat. Ut wisi </tspan><tspan x="0" y="60" class="st14 st6">enim ad minim veniam, quis </tspan><tspan x="0" y="72" class="st14 st6">nostrud exerci tation ullamcorper </tspan><tspan x="0" y="84" class="st14 st6">suscipit lobortis nisl ut aliquip ex </tspan><tspan x="0" y="96" class="st14 st6">ea commodo consequat. Duis </tspan><tspan x="0" y="108" class="st14 st6">autem vel eum iriure dolor in </tspan><tspan x="0" y="120" class="st14 st6">hendrerit in vulputate velit esse </tspan><tspan x="0" y="132" class="st14 st6">molestie </tspan></text>
	</g>
</g>
</svg>
