<?xml version="1.0" encoding="utf-8"?>
<!-- Generator: Adobe Illustrator 26.0.0, SVG Export Plug-In . SVG Version: 6.00 Build 0)  -->
<svg version="1.1" id="Layer_1" xmlns="http://www.w3.org/2000/svg" xmlns:xlink="http://www.w3.org/1999/xlink" x="0px" y="0px"
	 width="687.5px" height="351.8px" viewBox="0 0 687.5 351.8" style="enable-background:new 0 0 687.5 351.8;" xml:space="preserve"
	>
<style type="text/css">
	.st0{fill:none;stroke:#666666;stroke-width:6;stroke-miterlimit:10;}
	.st1{fill:#666666;}
	.st2{fill:#00A376;}
	.st3{font-family:'OpenSans-Semibold';}
	.st4{font-size:12px;}
	.st5{fill:#0077C8;}
	.st6{fill:#FFFFFF;}
	.st7{font-size:10px;}
	.st8{fill:none;stroke:#666666;stroke-width:2;stroke-linecap:round;stroke-linejoin:round;stroke-miterlimit:10;}
	.st9{fill:#FFB500;}

	<!-- Fade buttons on mouseover. -->
	.kwfade{opacity:1;}
	.kwfade:hover{opacity:0.7;}

	<!-- Here are the webfonts so OpenSans works. See https://confluence.corp.netsuite.com/display/DOC/Embed+Web+Fonts for details. -->
	@font-face {
		font-family: 'OpenSans';
		font-style: normal;
		font-weight: 400;
		font-display: swap;
		src: local('Open Sans'), local('OpenSans'), url(https://fonts.gstatic.com/s/opensans/v17/mem8YaGs126MiZpBA-UFVZ0b.woff2) format('woff2');
		unicode-range: U+0000-00FF, U+0131, U+0152-0153, U+02BB-02BC, U+02C6, U+02DA, U+02DC, U+2000-206F, U+2074, U+20AC, U+2122, U+2191, U+2193, U+2212, U+2215, U+FEFF, U+FFFD;
	}

	@font-face {
		font-family: 'OpenSans-Italic';
		font-style: italic;
		font-weight: 400;
		font-display: swap;
		src: local('Open Sans Italic'), local('OpenSans-Italic'), url(https://fonts.gstatic.com/s/opensans/v17/mem8YaGs126MiZpBA-UFVZ0b.woff2) format('woff2');
		unicode-range: U+0000-00FF, U+0131, U+0152-0153, U+02BB-02BC, U+02C6, U+02DA, U+02DC, U+2000-206F, U+2074, U+20AC, U+2122, U+2191, U+2193, U+2212, U+2215, U+FEFF, U+FFFD;
	}

	@font-face {
		font-family: 'OpenSans-SemiBold';
		font-style: normal;
		font-weight: 600;
		font-display: swap;
		src: local('Open Sans SemiBold'), local('OpenSans-SemiBold'), url(https://fonts.gstatic.com/s/opensans/v17/mem5YaGs126MiZpBA-UNirkOUuhp.woff2) format('woff2');
		unicode-range: U+0000-00FF, U+0131, U+0152-0153, U+02BB-02BC, U+02C6, U+02DA, U+02DC, U+2000-206F, U+2074, U+20AC, U+2122, U+2191, U+2193, U+2212, U+2215, U+FEFF, U+FFFD;
	}

	@font-face {
		font-family: 'OpenSans-SemiboldItalic';
		font-style: italic;
		font-weight: 600;
		font-display: swap;
		src: local('Open Sans SemiBold Italic'), local('OpenSans-SemiBoldItalic'), url(https://fonts.gstatic.com/s/opensans/v17/memnYaGs126MiZpBA-UFUKXGUdhrIqM.woff2) format('woff2');
		unicode-range: U+0000-00FF, U+0131, U+0152-0153, U+02BB-02BC, U+02C6, U+02DA, U+02DC, U+2000-206F, U+2074, U+20AC, U+2122, U+2191, U+2193, U+2212, U+2215, U+FEFF, U+FFFD;
	}

	@font-face {
		font-family: 'OpenSans-Bold';
		font-style: normal;
		font-weight: 700;
		font-display: swap;
		src: local('Open Sans Bold'), local('OpenSans-Bold'), url(https://fonts.gstatic.com/s/opensans/v17/mem5YaGs126MiZpBA-UN7rgOUuhp.woff2) format('woff2');
		unicode-range: U+0000-00FF, U+0131, U+0152-0153, U+02BB-02BC, U+02C6, U+02DA, U+02DC, U+2000-206F, U+2074, U+20AC, U+2122, U+2191, U+2193, U+2212, U+2215, U+FEFF, U+FFFD;
	}

	@font-face {
		font-family: 'OpenSans-BoldItalic';
		font-style: italic;
		font-weight: 700;
		font-display: swap;
		src: local('Open Sans Bold Italic'), local('OpenSans-BoldItalic'), url(https://fonts.gstatic.com/s/opensans/v17/memnYaGs126MiZpBA-UFUKWiUNhrIqM.woff2) format('woff2');
		unicode-range: U+0000-00FF, U+0131, U+0152-0153, U+02BB-02BC, U+02C6, U+02DA, U+02DC, U+2000-206F, U+2074, U+20AC, U+2122, U+2191, U+2193, U+2212, U+2215, U+FEFF, U+FFFD;
	}

	@font-face {
		font-family: 'OpenSans-Extrabold';
		font-style: normal;
		font-weight: 800;
		font-display: swap;
		src: local('Open Sans ExtraBold'), local('OpenSans-Extrabold'), url(https://fonts.gstatic.com/s/opensans/v17/mem5YaGs126MiZpBA-UN8rsOUuhp.woff2) format('woff2');
		unicode-range: U+0000-00FF, U+0131, U+0152-0153, U+02BB-02BC, U+02C6, U+02DA, U+02DC, U+2000-206F, U+2074, U+20AC, U+2122, U+2191, U+2193, U+2212, U+2215, U+FEFF, U+FFFD;
	}

	@font-face {
		font-family: 'OpenSans-ExtraboldItalic';
		font-style: italic;
		font-weight: 800;
		font-display: swap;
		src: local('Open Sans ExtraBold Italic'), local('OpenSans-ExtraBoldItalic'), url(https://fonts.gstatic.com/s/opensans/v17/memnYaGs126MiZpBA-UFUKW-U9hrIqM.woff2) format('woff2');
		unicode-range: U+0000-00FF, U+0131, U+0152-0153, U+02BB-02BC, U+02C6, U+02DA, U+02DC, U+2000-206F, U+2074, U+20AC, U+2122, U+2191, U+2193, U+2212, U+2215, U+FEFF, U+FFFD;
	}
</style>
<g id="arrows">
	<g>
		<g>
			<line class="st0" x1="78.19" y1="216.35" x2="78.19" y2="152.92"/>
			<g>
				<polygon class="st1" points="85.67,214.16 78.19,227.11 70.71,214.16 				"/>
			</g>
		</g>
	</g>
	<g>
		<g>
			<line class="st0" x1="355.87" y1="216.35" x2="355.87" y2="165.84"/>
			<g>
				<polygon class="st1" points="363.35,214.16 355.87,227.11 348.39,214.16 				"/>
			</g>
			<g>
				<polygon class="st1" points="364.84,168.46 355.87,152.92 346.89,168.46 				"/>
			</g>
		</g>
	</g>
	<g>
		<g>
			<line class="st0" x1="488.45" y1="216.35" x2="488.45" y2="165.84"/>
			<g>
				<polygon class="st1" points="495.93,214.16 488.45,227.11 480.97,214.16 				"/>
			</g>
			<g>
				<polygon class="st1" points="497.42,168.46 488.45,152.92 479.47,168.46 				"/>
			</g>
		</g>
	</g>
	<g>
		<g>
			<line class="st0" x1="616.06" y1="216.35" x2="616.06" y2="165.84"/>
			<g>
				<polygon class="st1" points="623.54,214.16 616.06,227.11 608.58,214.16 				"/>
			</g>
			<g>
				<polygon class="st1" points="625.04,168.46 616.06,152.92 607.09,168.46 				"/>
			</g>
		</g>
	</g>
</g>
<g id="converttoshipper">
	<g>
		<text transform="matrix(1 0 0 1 257.6586 42.7802)"><tspan x="0" y="0" class="st2 st3 st4">Convert Order</tspan><tspan x="11.66" y="14.4" class="st2 st3 st4">to Shipper</tspan></text>
	</g>
	<g>
		<path class="st2" d="M299.2,65.83c-98.5,0-164.05,16.77-169.01,23.86l0,0c4.73-6.75,79.79-18.69,169.01-18.69
			c69.03,0,122.38,9.83,128.25,15.13l3.86-5.98C400.75,71.46,371.4,65.83,299.2,65.83z"/>
		<g>
			<polygon class="st2" points="424.76,87.87 437.85,88.76 432.17,76.71 			"/>
		</g>
	</g>
</g>
<g id="converttoinvoice">
	<text transform="matrix(1 0 0 1 501.6717 42.78)"><tspan x="0" y="0" class="st2 st3 st4">Convert Shipper</tspan><tspan x="18.55" y="14.4" class="st2 st3 st4">to Invoice</tspan></text>
	<g>
		<path class="st2" d="M546.15,74.86c-13.42,0-26.18,7.87-31.14,14.96l0,0c4.73-6.75,18.11-11.94,31.14-11.94
			c11.15,0,19.53,1.72,25.4,7.02l2.18-4.04C567.74,75.44,557.42,74.86,546.15,74.86z"/>
		<g>
			<polygon class="st2" points="566.55,85.93 579.01,90.07 576.53,76.98 			"/>
		</g>
	</g>
</g>
<g id="oe">
	<g>
		<path class="st5" d="M130.19,128.56c0,3.3-2.7,6-6,6h-92c-3.3,0-6-2.7-6-6v-30.7c0-3.3,2.7-6,6-6h92c3.3,0,6,2.7,6,6V128.56z"/>
	</g>
	<text transform="matrix(1 0 0 1 44.2186 116.2341)" class="st6 st3 st4">Order Entry</text>
</g>
<g id="pick">
	<g>
		<path class="st5" d="M271.57,128.56c0,3.3-2.7,6-6,6h-92c-3.3,0-6-2.7-6-6v-30.7c0-3.3,2.7-6,6-6h92c3.3,0,6,2.7,6,6V128.56z"/>
	</g>
	<text transform="matrix(1 0 0 1 207.7995 116.2341)" class="st6 st3 st4">Pick</text>
</g>
<g id="pack">
	<g>
		<path class="st5" d="M407.87,128.56c0,3.3-2.7,6-6,6h-92c-3.3,0-6-2.7-6-6v-30.7c0-3.3,2.7-6,6-6h92c3.3,0,6,2.7,6,6V128.56z"/>
	</g>
	<text transform="matrix(1 0 0 1 342.2953 116.2341)" class="st6 st3 st4">Pack</text>
</g>
<g id="picklist">
	<g>
		<text transform="matrix(1 0 0 1 197.4104 301.1248)" class="st1 st3 st7">Pick List</text>
	</g>
	<g>
		<g>
			<path class="st1" d="M235.56,247.85c-0.01-0.11-0.02-0.23-0.07-0.34c-0.05-0.11-0.11-0.21-0.19-0.29
				c-0.01-0.01-0.01-0.03-0.03-0.04l0,0c0,0,0,0,0,0l-4.68-4.71c0,0,0,0,0,0c-0.09-0.09-0.21-0.17-0.33-0.22
				c-0.13-0.05-0.26-0.08-0.4-0.08h-28.35c-0.57,0-1.03,0.46-1.03,1.03v41.58c0,0.57,0.46,1.03,1.03,1.03h33.04
				c0.57,0,1.03-0.46,1.03-1.03v-36.87C235.57,247.89,235.56,247.87,235.56,247.85z"/>
			<g>
				<polygon class="st6" points="233.69,283.89 202.37,283.89 202.37,244.05 228.69,244.05 228.69,248.87 233.69,248.9 				"/>
			</g>
		</g>
		<path class="st1" d="M229.42,267.69h-21.36c-0.53,0-0.96-0.43-0.96-0.96s0.43-0.96,0.96-0.96h21.36c0.53,0,0.96,0.43,0.96,0.96
			S229.95,267.69,229.42,267.69z"/>
		<path class="st1" d="M229.42,273.11h-21.36c-0.53,0-0.96-0.43-0.96-0.96s0.43-0.96,0.96-0.96h21.36c0.53,0,0.96,0.43,0.96,0.96
			S229.95,273.11,229.42,273.11z"/>
		<path class="st1" d="M229.42,256.8h-21.36c-0.53,0-0.96-0.43-0.96-0.96c0-0.53,0.43-0.96,0.96-0.96h21.36
			c0.53,0,0.96,0.43,0.96,0.96C230.38,256.37,229.95,256.8,229.42,256.8z"/>
		<path class="st1" d="M216.61,250.99h-8.55c-0.53,0-0.96-0.43-0.96-0.96s0.43-0.96,0.96-0.96h8.55c0.53,0,0.96,0.43,0.96,0.96
			S217.14,250.99,216.61,250.99z"/>
		<path class="st1" d="M229.42,262.21h-21.36c-0.53,0-0.96-0.43-0.96-0.96s0.43-0.96,0.96-0.96h21.36c0.53,0,0.96,0.43,0.96,0.96
			S229.95,262.21,229.42,262.21z"/>
		<path class="st1" d="M229.42,278.23h-4.61c-0.53,0-0.96-0.43-0.96-0.96s0.43-0.96,0.96-0.96h4.61c0.53,0,0.96,0.43,0.96,0.96
			S229.95,278.23,229.42,278.23z"/>
	</g>
</g>
<g id="invoiceprint">
	<g>
		<rect x="600.27" y="243.41" class="st8" width="31.81" height="40.04"/>
		<line class="st8" x1="615.9" y1="249.44" x2="627.14" y2="249.44"/>
		<line class="st8" x1="615.9" y1="253.83" x2="627.14" y2="253.83"/>
		<line class="st8" x1="606.57" y1="263.97" x2="627.14" y2="263.97"/>
		<line class="st8" x1="606.57" y1="269.18" x2="627.14" y2="269.18"/>
		<line class="st8" x1="606.57" y1="274.12" x2="627.14" y2="274.12"/>
		<path class="st1" d="M611.65,253.82c-0.26-0.37-0.65-0.69-1.18-0.96c-0.38-0.19-0.86-0.36-1.41-0.52
			c-0.21-0.06-0.43-0.11-0.67-0.17c-0.38-0.08-0.69-0.17-0.97-0.26c-0.35-0.11-0.62-0.23-0.8-0.34c-0.33-0.21-0.49-0.52-0.49-0.93
			c0-0.44,0.18-0.79,0.53-1.06c0.2-0.16,0.47-0.26,0.77-0.32c0.21-0.05,0.43-0.08,0.69-0.08c0.35,0,0.66,0.06,0.94,0.18
			c0.21,0.08,0.4,0.19,0.56,0.33c0.4,0.34,0.6,0.74,0.6,1.21h0.01c0.04,0.41,0.4,0.74,0.86,0.74s0.81-0.33,0.86-0.74
			c0-0.91-0.35-1.66-1.06-2.25c-0.5-0.41-1.11-0.67-1.82-0.79v-0.56c0-0.45-0.37-0.82-0.82-0.82s-0.82,0.37-0.82,0.82v0.53
			c-0.77,0.1-1.43,0.36-1.96,0.8c-0.69,0.57-1.04,1.26-1.04,2.08c0,0.49,0.12,0.92,0.36,1.28c0.24,0.36,0.62,0.67,1.13,0.92
			c0.39,0.2,0.9,0.38,1.51,0.54c0.18,0.04,0.36,0.09,0.55,0.13c0.42,0.09,0.78,0.19,1.08,0.3c0.31,0.11,0.56,0.23,0.74,0.36
			c0.35,0.26,0.52,0.61,0.52,1.08c0,0.44-0.2,0.79-0.59,1.05c-0.19,0.13-0.42,0.23-0.68,0.29c-0.26,0.07-0.55,0.1-0.88,0.1
			c-0.27,0-0.52-0.03-0.75-0.08c-0.37-0.08-0.69-0.21-0.95-0.42c-0.43-0.34-0.66-0.79-0.69-1.36c-0.04-0.41-0.4-0.74-0.86-0.74
			c-0.45,0-0.81,0.33-0.86,0.74c0,0.59,0.17,1.14,0.52,1.65c0.35,0.51,0.83,0.9,1.45,1.19c0.42,0.19,0.88,0.31,1.38,0.37v0.5
			c0,0.45,0.37,0.82,0.82,0.82s0.82-0.37,0.82-0.82v-0.52c0.74-0.11,1.38-0.35,1.9-0.74c0.71-0.54,1.07-1.26,1.07-2.15
			C612.04,254.65,611.91,254.19,611.65,253.82z"/>
	</g>
	<g>
		<text transform="matrix(1 0 0 1 599.9359 300.1078)" class="st1 st3 st7">Invoice</text>
	</g>
</g>
<g id="packlist">
	<g>
		<text transform="matrix(1 0 0 1 332.593 300.7533)" class="st1 st3 st7">Pack List</text>
	</g>
	<g>
		<g>
			<path class="st1" d="M372.25,247.98c-0.01-0.11-0.02-0.23-0.07-0.34c-0.05-0.11-0.11-0.21-0.19-0.29
				c-0.01-0.01-0.01-0.03-0.03-0.04l0,0c0,0,0,0,0,0l-4.68-4.71c0,0,0,0,0,0c-0.09-0.09-0.21-0.17-0.33-0.22
				c-0.13-0.05-0.26-0.08-0.4-0.08H338.2c-0.57,0-1.03,0.46-1.03,1.03v41.58c0,0.57,0.46,1.03,1.03,1.03h33.04
				c0.57,0,1.03-0.46,1.03-1.03v-36.87C372.26,248.02,372.25,248,372.25,247.98z"/>
			<g>
				<polygon class="st6" points="370.38,284.01 339.06,284.01 339.06,244.18 365.38,244.18 365.38,249 370.38,249.03 				"/>
			</g>
		</g>
		<path class="st1" d="M366.11,267.82h-21.36c-0.53,0-0.96-0.43-0.96-0.96s0.43-0.96,0.96-0.96h21.36c0.53,0,0.96,0.43,0.96,0.96
			S366.64,267.82,366.11,267.82z"/>
		<path class="st1" d="M366.11,273.23h-21.36c-0.53,0-0.96-0.43-0.96-0.96s0.43-0.96,0.96-0.96h21.36c0.53,0,0.96,0.43,0.96,0.96
			S366.64,273.23,366.11,273.23z"/>
		<path class="st1" d="M366.11,256.93h-21.36c-0.53,0-0.96-0.43-0.96-0.96c0-0.53,0.43-0.96,0.96-0.96h21.36
			c0.53,0,0.96,0.43,0.96,0.96C367.07,256.5,366.64,256.93,366.11,256.93z"/>
		<path class="st1" d="M353.3,251.12h-8.55c-0.53,0-0.96-0.43-0.96-0.96c0-0.53,0.43-0.96,0.96-0.96h8.55
			c0.53,0,0.96,0.43,0.96,0.96C354.26,250.69,353.83,251.12,353.3,251.12z"/>
		<path class="st1" d="M366.11,262.34h-21.36c-0.53,0-0.96-0.43-0.96-0.96s0.43-0.96,0.96-0.96h21.36c0.53,0,0.96,0.43,0.96,0.96
			S366.64,262.34,366.11,262.34z"/>
		<path class="st1" d="M366.11,278.36h-4.61c-0.53,0-0.96-0.43-0.96-0.96s0.43-0.96,0.96-0.96h4.61c0.53,0,0.96,0.43,0.96,0.96
			S366.64,278.36,366.11,278.36z"/>
	</g>
</g>
<g id="shipper">
	<g>
		<g>
			<path class="st1" d="M500.89,245.73c-0.01-0.09-0.02-0.19-0.06-0.27c-0.04-0.09-0.09-0.17-0.16-0.24
				c-0.01-0.01-0.01-0.02-0.02-0.03l0,0c0,0,0,0,0,0l-3.78-3.81c0,0,0,0,0,0c-0.08-0.08-0.17-0.14-0.27-0.18
				c-0.1-0.04-0.21-0.06-0.32-0.06h-22.93c-0.46,0-0.83,0.37-0.83,0.83v33.62c0,0.46,0.37,0.83,0.83,0.83h26.71
				c0.46,0,0.83-0.37,0.83-0.83v-29.81C500.9,245.76,500.89,245.75,500.89,245.73z"/>
			<g>
				<polygon class="st6" points="499.38,274.87 474.05,274.87 474.05,242.66 495.34,242.66 495.33,246.55 499.38,246.58 				"/>
			</g>
		</g>
		<path class="st1" d="M495.92,261.78h-17.27c-0.43,0-0.78-0.35-0.78-0.78s0.35-0.78,0.78-0.78h17.27c0.43,0,0.78,0.35,0.78,0.78
			S496.35,261.78,495.92,261.78z"/>
		<path class="st1" d="M495.92,252.97h-17.27c-0.43,0-0.78-0.35-0.78-0.78c0-0.43,0.35-0.78,0.78-0.78h17.27
			c0.43,0,0.78,0.35,0.78,0.78C496.7,252.62,496.35,252.97,495.92,252.97z"/>
		<path class="st1" d="M485.57,248.27h-6.92c-0.43,0-0.78-0.35-0.78-0.78c0-0.43,0.35-0.78,0.78-0.78h6.92
			c0.43,0,0.78,0.35,0.78,0.78C486.34,247.92,486,248.27,485.57,248.27z"/>
		<path class="st1" d="M495.92,257.35h-17.27c-0.43,0-0.78-0.35-0.78-0.78c0-0.43,0.35-0.78,0.78-0.78h17.27
			c0.43,0,0.78,0.35,0.78,0.78C496.7,257,496.35,257.35,495.92,257.35z"/>
	</g>
	<g>
		<text transform="matrix(1 0 0 1 468.5843 300.2356)"><tspan x="0" y="0" class="st1 st3 st7">Shipper/</tspan><tspan x="5.36" y="12" class="st1 st3 st7">Track/</tspan><tspan x="5.1" y="24" class="st1 st3 st7">Labels</tspan></text>
	</g>
	<g>
		<path class="st1" d="M512.55,284.72h-26.7c-0.31,0-0.56-0.25-0.56-0.56v-18.45c0-0.31,0.25-0.56,0.56-0.56h26.7
			c0.31,0,0.56,0.25,0.56,0.56v18.45C513.11,284.47,512.86,284.72,512.55,284.72z M486.41,283.6h25.58v-17.32h-25.58V283.6z"/>
		<g>
			<rect x="486.41" y="266.28" class="st6" width="25.58" height="17.32"/>
		</g>
		<rect x="488.87" y="267.78" class="st1" width="1.13" height="14.38"/>
		<rect x="493.67" y="267.78" class="st1" width="1.13" height="14.38"/>
		<rect x="490.69" y="267.78" class="st1" width="2.13" height="14.38"/>
		<rect x="500.02" y="267.78" class="st1" width="1.13" height="14.38"/>
		<rect x="501.94" y="267.78" class="st1" width="1.13" height="14.38"/>
		<rect x="505.74" y="267.78" class="st1" width="1.13" height="14.38"/>
		<rect x="496.95" y="267.78" class="st1" width="2.23" height="14.38"/>
		<rect x="507.72" y="267.78" class="st1" width="2.05" height="14.38"/>
	</g>
</g>
<g id="so">
	<text transform="matrix(1 0 0 1 50.0198 300.8016)" class="st1 st3 st7">Sales Order</text>
	<g>
		<rect x="62.18" y="244.1" class="st8" width="31.81" height="40.04"/>
		<line class="st8" x1="77.82" y1="250.13" x2="89.06" y2="250.13"/>
		<line class="st8" x1="77.82" y1="254.52" x2="89.06" y2="254.52"/>
		<line class="st8" x1="68.49" y1="264.67" x2="89.06" y2="264.67"/>
		<line class="st8" x1="68.49" y1="269.88" x2="89.06" y2="269.88"/>
		<line class="st8" x1="68.49" y1="274.82" x2="89.06" y2="274.82"/>
	</g>
	<path class="st1" d="M68.87,254.12c0.11-0.11,0.21-0.2,0.31-0.29c1.62-1.61,3.23-3.23,4.84-4.85c0.31-0.31,0.67-0.46,1.11-0.33
		c0.73,0.21,0.99,1.09,0.51,1.67c-0.04,0.05-0.09,0.1-0.13,0.14c-1.93,1.93-3.85,3.85-5.78,5.78c-0.57,0.57-1.14,0.57-1.72-0.01
		c-0.88-0.88-1.76-1.76-2.64-2.64c-0.34-0.34-0.41-0.78-0.22-1.19c0.18-0.39,0.59-0.63,1.03-0.6c0.29,0.02,0.52,0.16,0.73,0.36
		c0.58,0.59,1.17,1.17,1.76,1.76C68.72,253.99,68.79,254.04,68.87,254.12z"/>
</g>
<g id="ship">
	<g>
		<path class="st5" d="M540.45,128.56c0,3.3-2.7,6-6,6h-92c-3.3,0-6-2.7-6-6v-30.7c0-3.3,2.7-6,6-6h92c3.3,0,6,2.7,6,6V128.56z"/>
	</g>
	<text transform="matrix(1 0 0 1 475.9292 116.2341)" class="st6 st3 st4">Ship</text>
</g>
<a id="invoice" class="kwfade" xlink:href="https://www.intacct.com/ia/docs/en_US/help_action/Accounts_Receivable/Invoices/Tasks/create-invoice.htm" target="_blank">
	<g>
		<g>
			<path class="st5" d="M668.06,128.56c0,3.3-2.7,6-6,6h-92c-3.3,0-6-2.7-6-6v-30.7c0-3.3,2.7-6,6-6h92c3.3,0,6,2.7,6,6V128.56z"/>
		</g>
		<text transform="matrix(1 0 0 1 595.4457 116.2341)" class="st6 st3 st4">Invoice</text>
		<g>
			<g>
				<g>
					<path class="st9" d="M665.01,125.06c0.01,0.75-0.17,1.18-0.52,1.54c-0.56,0.57-1.12,1.13-1.69,1.69
						c-0.7,0.68-1.8,0.71-2.51,0.08c-0.26-0.24-0.32-0.54-0.13-0.77c0.19-0.24,0.51-0.25,0.8-0.03c0.4,0.3,0.79,0.28,1.14-0.07
						c0.53-0.52,1.05-1.05,1.58-1.57c0.25-0.25,0.35-0.53,0.24-0.87c-0.18-0.55-0.85-0.72-1.3-0.31c-0.31,0.29-0.61,0.59-0.9,0.9
						c-0.11,0.11-0.2,0.13-0.35,0.09c-0.23-0.07-0.47-0.08-0.7-0.13c-0.07-0.01-0.15-0.05-0.19-0.1c-0.02-0.03,0.03-0.13,0.07-0.18
						c0.47-0.48,0.93-0.98,1.43-1.42c0.58-0.51,1.26-0.59,1.96-0.27C664.65,123.96,665,124.54,665.01,125.06z"/>
				</g>
				<g>
					<path class="st9" d="M658.97,131.36c-0.78-0.02-1.36-0.37-1.68-1.09c-0.32-0.72-0.21-1.42,0.33-2
						c0.57-0.61,1.16-1.19,1.76-1.77c0.69-0.66,1.76-0.67,2.46-0.05c0.27,0.24,0.32,0.56,0.12,0.79c-0.19,0.22-0.51,0.23-0.78,0.02
						c-0.39-0.31-0.79-0.29-1.14,0.06c-0.55,0.55-1.11,1.1-1.65,1.65c-0.27,0.28-0.29,0.67-0.09,0.98c0.19,0.29,0.56,0.44,0.88,0.32
						c0.14-0.05,0.28-0.15,0.4-0.25c0.29-0.27,0.57-0.56,0.84-0.85c0.11-0.11,0.2-0.13,0.35-0.08c0.24,0.07,0.48,0.09,0.73,0.13
						c0.06,0.01,0.14,0.05,0.16,0.09c0.02,0.03-0.02,0.12-0.05,0.16c-0.51,0.51-1,1.02-1.53,1.5
						C659.78,131.25,659.39,131.36,658.97,131.36z"/>
				</g>
			</g>
		</g>
	</g>
</a>
</svg>
