<?xml version="1.0" encoding="utf-8"?>
<!-- Generator: Adobe Illustrator 26.0.0, SVG Export Plug-In . SVG Version: 6.00 Build 0)  -->
<svg version="1.1" id="Layer_1" xmlns="http://www.w3.org/2000/svg" xmlns:xlink="http://www.w3.org/1999/xlink" x="0px" y="0px"
	 width="469.43px" height="318.33px" viewBox="0 0 469.43 318.33" style="enable-background:new 0 0 469.43 318.33;"
	 xml:space="preserve">
<g>
	<path style="fill:#003349;" d="M99.03,65.47H34.56c-5.9,0-10.68-4.78-10.68-10.68V37.91c0-5.9,4.78-10.68,10.68-10.68h64.47
		c5.9,0,10.68,4.78,10.68,10.68v16.88C109.71,60.69,104.93,65.47,99.03,65.47z"/>
	<text transform="matrix(1 0 0 1 47.3961 50.3747)" style="fill:#FFFFFF; font-family:'OpenSans-Semibold'; font-size:14px;">Hello!</text>
</g>
<g>
	<path style="fill:#4971B8;" d="M204.8,126.49h-64.47c-5.9,0-10.68-4.78-10.68-10.68V98.93c0-5.9,4.78-10.68,10.68-10.68h64.47
		c5.9,0,10.68,4.78,10.68,10.68v16.88C215.47,121.71,210.69,126.49,204.8,126.49z"/>
	<text transform="matrix(1 0 0 1 153.161 111.3948)" style="fill:#FFFFFF; font-family:'OpenSans-Semibold'; font-size:14px;">Hello!</text>
</g>
<g>
	<path style="fill:#83A1CB;" d="M319.67,184.64H255.2c-5.9,0-10.68-4.78-10.68-10.68v-16.88c0-5.9,4.78-10.68,10.68-10.68h64.47
		c5.9,0,10.68,4.78,10.68,10.68v16.88C330.34,179.86,325.56,184.64,319.67,184.64z"/>
	<text transform="matrix(1 0 0 1 268.0311 169.5471)" style="fill:#FFFFFF; font-family:'OpenSans-Semibold'; font-size:14px;">Hello!</text>
</g>
<g>
	<path style="fill:#A8C1E4;" d="M434.87,249.69H370.4c-5.9,0-10.68-4.78-10.68-10.68v-16.88c0-5.9,4.78-10.68,10.68-10.68h64.47
		c5.9,0,10.68,4.78,10.68,10.68v16.88C445.54,244.91,440.76,249.69,434.87,249.69z"/>
	<text transform="matrix(1 0 0 1 383.2311 234.5954)" style="fill:#FFFFFF; font-family:'OpenSans-Semibold'; font-size:14px;">Hello!</text>
</g>
</svg>
