<?xml version="1.0" encoding="utf-8"?>
<!-- Generator: Adobe Illustrator 26.0.0, SVG Export Plug-In . SVG Version: 6.00 Build 0)  -->
<svg version="1.1" id="Layer_1" xmlns="http://www.w3.org/2000/svg" xmlns:xlink="http://www.w3.org/1999/xlink" x="0px" y="0px"
	 width="687.5px" height="351.8px" viewBox="0 0 687.5 351.8" style="enable-background:new 0 0 687.5 351.8;" xml:space="preserve"
	>
<style type="text/css">
	.st0{fill:none;stroke:#666666;stroke-width:6;stroke-miterlimit:10;}
	.st1{fill:#666666;}
	.st2{fill:#00A376;}
	.st3{font-family:'OpenSans-Semibold';}
	.st4{font-size:12px;}
	.st5{fill:#0077C8;}
	.st6{fill:#FFFFFF;}
	.st7{font-size:10px;}
	.st8{fill:none;stroke:#666666;stroke-width:2;stroke-linecap:round;stroke-linejoin:round;stroke-miterlimit:10;}
	.st9{fill:none;stroke:#CCCCCC;stroke-width:6;stroke-miterlimit:10;}
	.st10{fill:#CCCCCC;}
	.st11{fill:#582283;}
	.st12{fill:#FFB500;}
	.st13{fill:#333333;}
	.st14{fill:#E6E6E6;}
	<!-- Fade buttons on mouseover. -->
	.kw_fade{opacity:1;}
	.kw_fade:hover{opacity:0.7;}

	<!-- Here are the webfonts so OpenSans works. See https://confluence.corp.netsuite.com/display/DOC/Embed+Web+Fonts for details. -->
	@font-face {
		font-family: 'OpenSans';
		font-style: normal;
		font-weight: 400;
		font-display: swap;
		src: local('Open Sans'), local('OpenSans'), url(https://fonts.gstatic.com/s/opensans/v17/mem8YaGs126MiZpBA-UFVZ0b.woff2) format('woff2');
		unicode-range: U+0000-00FF, U+0131, U+0152-0153, U+02BB-02BC, U+02C6, U+02DA, U+02DC, U+2000-206F, U+2074, U+20AC, U+2122, U+2191, U+2193, U+2212, U+2215, U+FEFF, U+FFFD;
	}

	@font-face {
		font-family: 'OpenSans-Italic';
		font-style: italic;
		font-weight: 400;
		font-display: swap;
		src: local('Open Sans Italic'), local('OpenSans-Italic'), url(https://fonts.gstatic.com/s/opensans/v17/mem8YaGs126MiZpBA-UFVZ0b.woff2) format('woff2');
		unicode-range: U+0000-00FF, U+0131, U+0152-0153, U+02BB-02BC, U+02C6, U+02DA, U+02DC, U+2000-206F, U+2074, U+20AC, U+2122, U+2191, U+2193, U+2212, U+2215, U+FEFF, U+FFFD;
	}

	@font-face {
		font-family: 'OpenSans-SemiBold';
		font-style: normal;
		font-weight: 600;
		font-display: swap;
		src: local('Open Sans SemiBold'), local('OpenSans-SemiBold'), url(https://fonts.gstatic.com/s/opensans/v17/mem5YaGs126MiZpBA-UNirkOUuhp.woff2) format('woff2');
		unicode-range: U+0000-00FF, U+0131, U+0152-0153, U+02BB-02BC, U+02C6, U+02DA, U+02DC, U+2000-206F, U+2074, U+20AC, U+2122, U+2191, U+2193, U+2212, U+2215, U+FEFF, U+FFFD;
	}

	@font-face {
		font-family: 'OpenSans-SemiboldItalic';
		font-style: italic;
		font-weight: 600;
		font-display: swap;
		src: local('Open Sans SemiBold Italic'), local('OpenSans-SemiBoldItalic'), url(https://fonts.gstatic.com/s/opensans/v17/memnYaGs126MiZpBA-UFUKXGUdhrIqM.woff2) format('woff2');
		unicode-range: U+0000-00FF, U+0131, U+0152-0153, U+02BB-02BC, U+02C6, U+02DA, U+02DC, U+2000-206F, U+2074, U+20AC, U+2122, U+2191, U+2193, U+2212, U+2215, U+FEFF, U+FFFD;
	}

	@font-face {
		font-family: 'OpenSans-Bold';
		font-style: normal;
		font-weight: 700;
		font-display: swap;
		src: local('Open Sans Bold'), local('OpenSans-Bold'), url(https://fonts.gstatic.com/s/opensans/v17/mem5YaGs126MiZpBA-UN7rgOUuhp.woff2) format('woff2');
		unicode-range: U+0000-00FF, U+0131, U+0152-0153, U+02BB-02BC, U+02C6, U+02DA, U+02DC, U+2000-206F, U+2074, U+20AC, U+2122, U+2191, U+2193, U+2212, U+2215, U+FEFF, U+FFFD;
	}

	@font-face {
		font-family: 'OpenSans-BoldItalic';
		font-style: italic;
		font-weight: 700;
		font-display: swap;
		src: local('Open Sans Bold Italic'), local('OpenSans-BoldItalic'), url(https://fonts.gstatic.com/s/opensans/v17/memnYaGs126MiZpBA-UFUKWiUNhrIqM.woff2) format('woff2');
		unicode-range: U+0000-00FF, U+0131, U+0152-0153, U+02BB-02BC, U+02C6, U+02DA, U+02DC, U+2000-206F, U+2074, U+20AC, U+2122, U+2191, U+2193, U+2212, U+2215, U+FEFF, U+FFFD;
	}

	@font-face {
		font-family: 'OpenSans-Extrabold';
		font-style: normal;
		font-weight: 800;
		font-display: swap;
		src: local('Open Sans ExtraBold'), local('OpenSans-Extrabold'), url(https://fonts.gstatic.com/s/opensans/v17/mem5YaGs126MiZpBA-UN8rsOUuhp.woff2) format('woff2');
		unicode-range: U+0000-00FF, U+0131, U+0152-0153, U+02BB-02BC, U+02C6, U+02DA, U+02DC, U+2000-206F, U+2074, U+20AC, U+2122, U+2191, U+2193, U+2212, U+2215, U+FEFF, U+FFFD;
	}

	@font-face {
		font-family: 'OpenSans-ExtraboldItalic';
		font-style: italic;
		font-weight: 800;
		font-display: swap;
		src: local('Open Sans ExtraBold Italic'), local('OpenSans-ExtraBoldItalic'), url(https://fonts.gstatic.com/s/opensans/v17/memnYaGs126MiZpBA-UFUKW-U9hrIqM.woff2) format('woff2');
		unicode-range: U+0000-00FF, U+0131, U+0152-0153, U+02BB-02BC, U+02C6, U+02DA, U+02DC, U+2000-206F, U+2074, U+20AC, U+2122, U+2191, U+2193, U+2212, U+2215, U+FEFF, U+FFFD;
	}
</style>
<g id="arrows">
	<g>
		<g>
			<line class="st0" x1="78.19" y1="170.43" x2="78.19" y2="107"/>
			<g>
				<polygon class="st1" points="85.67,168.24 78.19,181.19 70.71,168.24 				"/>
			</g>
		</g>
	</g>
	<g>
		<g>
			<line class="st0" x1="355.87" y1="170.43" x2="355.87" y2="119.91"/>
			<g>
				<polygon class="st1" points="363.35,168.24 355.87,181.19 348.39,168.24 				"/>
			</g>
			<g>
				<polygon class="st1" points="364.84,122.54 355.87,107 346.89,122.54 				"/>
			</g>
		</g>
	</g>
	<g>
		<g>
			<line class="st0" x1="488.45" y1="170.43" x2="488.45" y2="119.91"/>
			<g>
				<polygon class="st1" points="495.93,168.24 488.45,181.19 480.97,168.24 				"/>
			</g>
			<g>
				<polygon class="st1" points="497.42,122.54 488.45,107 479.47,122.54 				"/>
			</g>
		</g>
	</g>
	<g>
		<g>
			<line class="st0" x1="616.06" y1="170.43" x2="616.06" y2="119.91"/>
			<g>
				<polygon class="st1" points="623.54,168.24 616.06,181.19 608.58,168.24 				"/>
			</g>
			<g>
				<polygon class="st1" points="625.04,122.54 616.06,107 607.09,122.54 				"/>
			</g>
		</g>
	</g>
</g>
<g id="converttoshipper">
	<g>
		<text transform="matrix(1 0 0 1 209.2617 319.3589)" class="st2 st3 st4">Convert Order to Shipper</text>
	</g>
	<g>
		<path class="st2" d="M287.22,293.89c-79.89,0-147.27-16.57-176.81-32.83l0,0c28.16,15.5,99.21,25.91,176.81,25.91
			c66.37,0,125.6-8.27,160.54-20.45l3.64,8.85C415.77,287.8,354.32,293.89,287.22,293.89z"/>
		<g>
			<polygon class="st2" points="443.4,262.17 463.9,265.05 451.16,281.36 			"/>
		</g>
	</g>
</g>
<g id="converttoinvoice">
	<text transform="matrix(1 0 0 1 521.5472 321.0116)"><tspan x="0" y="0" class="st2 st3 st4">Convert Shipper</tspan><tspan x="18.55" y="14.4" class="st2 st3 st4">to Invoice</tspan></text>
	<g>
		<path class="st2" d="M560.09,288.47c-17.23,0-30.16-11.39-40.17-21.71l0,0c8.68,8.95,24.94,14.83,40.27,14.83
			c10.22,0,17.11-2.64,25.24-7l3.97,7.2C580.23,286.7,571.49,288.47,560.09,288.47z"/>
		<g>
			<polygon class="st2" points="578.9,270.43 600.26,268.11 591.59,287.76 			"/>
		</g>
	</g>
</g>
<g id="oe">
	<g>
		<path class="st5" d="M130.19,79.88c0,3.3-2.7,6-6,6h-92c-3.3,0-6-2.7-6-6v-47c0-3.3,2.7-6,6-6h92c3.3,0,6,2.7,6,6V79.88z"/>
	</g>
	<text transform="matrix(1 0 0 1 44.2186 59.8252)" class="st6 st3 st4">Order Entry</text>
</g>
<g id="pick">
	<g>
		<path class="st5" d="M271.57,79.88c0,3.3-2.7,6-6,6h-92c-3.3,0-6-2.7-6-6v-47c0-3.3,2.7-6,6-6h92c3.3,0,6,2.7,6,6V79.88z"/>
	</g>
	<text transform="matrix(1 0 0 1 207.7995 59.8252)" class="st6 st3 st4">Pick</text>
</g>
<g id="pack">
	<g>
		<path class="st5" d="M407.87,79.88c0,3.3-2.7,6-6,6h-92c-3.3,0-6-2.7-6-6v-47c0-3.3,2.7-6,6-6h92c3.3,0,6,2.7,6,6V79.88z"/>
	</g>
	<text transform="matrix(1 0 0 1 342.2953 59.8252)" class="st6 st3 st4">Pack</text>
</g>
<g id="picklist">
	<g>
		<text transform="matrix(1 0 0 1 197.4104 255.2034)" class="st1 st3 st7">Pick List</text>
	</g>
	<g>
		<g>
			<path class="st1" d="M235.56,201.93c-0.01-0.11-0.02-0.23-0.07-0.34c-0.05-0.11-0.11-0.21-0.19-0.29
				c-0.01-0.01-0.01-0.03-0.03-0.04l0,0c0,0,0,0,0,0l-4.68-4.71c0,0,0,0,0,0c-0.09-0.09-0.21-0.17-0.33-0.22
				c-0.13-0.05-0.26-0.08-0.4-0.08h-28.35c-0.57,0-1.03,0.46-1.03,1.03v41.58c0,0.57,0.46,1.03,1.03,1.03h33.04
				c0.57,0,1.03-0.46,1.03-1.03v-36.87C235.57,201.97,235.56,201.95,235.56,201.93z"/>
			<g>
				<polygon class="st6" points="233.69,237.96 202.37,237.96 202.37,198.13 228.69,198.13 228.69,202.95 233.69,202.98 				"/>
			</g>
		</g>
		<path class="st1" d="M229.42,221.77h-21.36c-0.53,0-0.96-0.43-0.96-0.96s0.43-0.96,0.96-0.96h21.36c0.53,0,0.96,0.43,0.96,0.96
			S229.95,221.77,229.42,221.77z"/>
		<path class="st1" d="M229.42,227.18h-21.36c-0.53,0-0.96-0.43-0.96-0.96s0.43-0.96,0.96-0.96h21.36c0.53,0,0.96,0.43,0.96,0.96
			S229.95,227.18,229.42,227.18z"/>
		<path class="st1" d="M229.42,210.88h-21.36c-0.53,0-0.96-0.43-0.96-0.96s0.43-0.96,0.96-0.96h21.36c0.53,0,0.96,0.43,0.96,0.96
			S229.95,210.88,229.42,210.88z"/>
		<path class="st1" d="M216.61,205.07h-8.55c-0.53,0-0.96-0.43-0.96-0.96s0.43-0.96,0.96-0.96h8.55c0.53,0,0.96,0.43,0.96,0.96
			S217.14,205.07,216.61,205.07z"/>
		<path class="st1" d="M229.42,216.29h-21.36c-0.53,0-0.96-0.43-0.96-0.96s0.43-0.96,0.96-0.96h21.36c0.53,0,0.96,0.43,0.96,0.96
			S229.95,216.29,229.42,216.29z"/>
		<path class="st1" d="M229.42,232.31h-4.61c-0.53,0-0.96-0.43-0.96-0.96s0.43-0.96,0.96-0.96h4.61c0.53,0,0.96,0.43,0.96,0.96
			S229.95,232.31,229.42,232.31z"/>
	</g>
</g>
<g id="invoiceprint">
	<g>
		<rect x="600.27" y="197.48" class="st8" width="31.81" height="40.04"/>
		<line class="st8" x1="615.9" y1="203.52" x2="627.14" y2="203.52"/>
		<line class="st8" x1="615.9" y1="207.91" x2="627.14" y2="207.91"/>
		<line class="st8" x1="606.57" y1="218.05" x2="627.14" y2="218.05"/>
		<line class="st8" x1="606.57" y1="223.26" x2="627.14" y2="223.26"/>
		<line class="st8" x1="606.57" y1="228.2" x2="627.14" y2="228.2"/>
		<path class="st1" d="M611.65,207.9c-0.26-0.37-0.65-0.69-1.18-0.96c-0.38-0.19-0.86-0.36-1.41-0.52
			c-0.21-0.06-0.43-0.11-0.67-0.17c-0.38-0.08-0.69-0.17-0.97-0.26c-0.35-0.11-0.62-0.23-0.8-0.34c-0.33-0.21-0.49-0.52-0.49-0.93
			c0-0.44,0.18-0.79,0.53-1.06c0.2-0.16,0.47-0.26,0.77-0.32c0.21-0.05,0.43-0.08,0.69-0.08c0.35,0,0.66,0.06,0.94,0.18
			c0.21,0.08,0.4,0.19,0.56,0.33c0.4,0.34,0.6,0.74,0.6,1.21h0.01c0.04,0.41,0.4,0.74,0.86,0.74s0.81-0.33,0.86-0.74
			c0-0.91-0.35-1.66-1.06-2.25c-0.5-0.41-1.11-0.67-1.82-0.79v-0.56c0-0.45-0.37-0.82-0.82-0.82s-0.82,0.37-0.82,0.82v0.53
			c-0.77,0.1-1.43,0.36-1.96,0.8c-0.69,0.57-1.04,1.26-1.04,2.08c0,0.49,0.12,0.92,0.36,1.28c0.24,0.36,0.62,0.67,1.13,0.92
			c0.39,0.2,0.9,0.38,1.51,0.54c0.18,0.04,0.36,0.09,0.55,0.13c0.42,0.09,0.78,0.19,1.08,0.3c0.31,0.11,0.56,0.23,0.74,0.36
			c0.35,0.26,0.52,0.61,0.52,1.08c0,0.44-0.2,0.79-0.59,1.05c-0.19,0.13-0.42,0.23-0.68,0.29c-0.26,0.07-0.55,0.1-0.88,0.1
			c-0.27,0-0.52-0.03-0.75-0.08c-0.37-0.08-0.69-0.21-0.95-0.42c-0.43-0.34-0.66-0.79-0.69-1.36c-0.04-0.41-0.4-0.74-0.86-0.74
			c-0.45,0-0.81,0.33-0.86,0.74c0,0.59,0.17,1.14,0.52,1.65c0.35,0.51,0.83,0.9,1.45,1.19c0.42,0.19,0.88,0.31,1.38,0.37v0.5
			c0,0.45,0.37,0.82,0.82,0.82s0.82-0.37,0.82-0.82v-0.52c0.74-0.11,1.38-0.35,1.9-0.74c0.71-0.54,1.07-1.26,1.07-2.15
			C612.04,208.73,611.91,208.27,611.65,207.9z"/>
	</g>
	<g>
		<text transform="matrix(1 0 0 1 599.9359 254.1864)" class="st1 st3 st7">Invoice</text>
	</g>
</g>
<g id="packlist">
	<g>
		<text transform="matrix(1 0 0 1 332.593 254.8318)" class="st1 st3 st7">Pack List</text>
	</g>
	<g>
		<g>
			<path class="st1" d="M372.25,202.06c-0.01-0.11-0.02-0.23-0.07-0.34c-0.05-0.11-0.11-0.21-0.19-0.29
				c-0.01-0.01-0.01-0.03-0.03-0.04l0,0c0,0,0,0,0,0l-4.68-4.71c0,0,0,0,0,0c-0.09-0.09-0.21-0.17-0.33-0.22
				c-0.13-0.05-0.26-0.08-0.4-0.08H338.2c-0.57,0-1.03,0.46-1.03,1.03v41.58c0,0.57,0.46,1.03,1.03,1.03h33.04
				c0.57,0,1.03-0.46,1.03-1.03v-36.87C372.26,202.09,372.25,202.08,372.25,202.06z"/>
			<g>
				<polygon class="st6" points="370.38,238.09 339.06,238.09 339.06,198.25 365.38,198.25 365.38,203.08 370.38,203.11 				"/>
			</g>
		</g>
		<path class="st1" d="M366.11,221.9h-21.36c-0.53,0-0.96-0.43-0.96-0.96s0.43-0.96,0.96-0.96h21.36c0.53,0,0.96,0.43,0.96,0.96
			S366.64,221.9,366.11,221.9z"/>
		<path class="st1" d="M366.11,227.31h-21.36c-0.53,0-0.96-0.43-0.96-0.96s0.43-0.96,0.96-0.96h21.36c0.53,0,0.96,0.43,0.96,0.96
			S366.64,227.31,366.11,227.31z"/>
		<path class="st1" d="M366.11,211.01h-21.36c-0.53,0-0.96-0.43-0.96-0.96s0.43-0.96,0.96-0.96h21.36c0.53,0,0.96,0.43,0.96,0.96
			S366.64,211.01,366.11,211.01z"/>
		<path class="st1" d="M353.3,205.2h-8.55c-0.53,0-0.96-0.43-0.96-0.96s0.43-0.96,0.96-0.96h8.55c0.53,0,0.96,0.43,0.96,0.96
			S353.83,205.2,353.3,205.2z"/>
		<path class="st1" d="M366.11,216.42h-21.36c-0.53,0-0.96-0.43-0.96-0.96s0.43-0.96,0.96-0.96h21.36c0.53,0,0.96,0.43,0.96,0.96
			S366.64,216.42,366.11,216.42z"/>
		<path class="st1" d="M366.11,232.44h-4.61c-0.53,0-0.96-0.43-0.96-0.96s0.43-0.96,0.96-0.96h4.61c0.53,0,0.96,0.43,0.96,0.96
			S366.64,232.44,366.11,232.44z"/>
	</g>
</g>
<g id="shipper">
	<g>
		<g>
			<path class="st1" d="M500.89,199.81c-0.01-0.09-0.02-0.19-0.06-0.27c-0.04-0.09-0.09-0.17-0.16-0.24
				c-0.01-0.01-0.01-0.02-0.02-0.03l0,0c0,0,0,0,0,0l-3.78-3.81c0,0,0,0,0,0c-0.08-0.08-0.17-0.14-0.27-0.18
				c-0.1-0.04-0.21-0.06-0.32-0.06h-22.93c-0.46,0-0.83,0.37-0.83,0.83v33.62c0,0.46,0.37,0.83,0.83,0.83h26.71
				c0.46,0,0.83-0.37,0.83-0.83v-29.81C500.9,199.84,500.89,199.83,500.89,199.81z"/>
			<g>
				<polygon class="st6" points="499.38,228.95 474.05,228.95 474.05,196.73 495.34,196.73 495.33,200.63 499.38,200.66 				"/>
			</g>
		</g>
		<path class="st1" d="M495.92,215.86h-17.27c-0.43,0-0.78-0.35-0.78-0.78c0-0.43,0.35-0.78,0.78-0.78h17.27
			c0.43,0,0.78,0.35,0.78,0.78C496.7,215.51,496.35,215.86,495.92,215.86z"/>
		<path class="st1" d="M495.92,207.05h-17.27c-0.43,0-0.78-0.35-0.78-0.78s0.35-0.78,0.78-0.78h17.27c0.43,0,0.78,0.35,0.78,0.78
			S496.35,207.05,495.92,207.05z"/>
		<path class="st1" d="M485.57,202.35h-6.92c-0.43,0-0.78-0.35-0.78-0.78c0-0.43,0.35-0.78,0.78-0.78h6.92
			c0.43,0,0.78,0.35,0.78,0.78C486.34,202,486,202.35,485.57,202.35z"/>
		<path class="st1" d="M495.92,211.43h-17.27c-0.43,0-0.78-0.35-0.78-0.78c0-0.43,0.35-0.78,0.78-0.78h17.27
			c0.43,0,0.78,0.35,0.78,0.78C496.7,211.08,496.35,211.43,495.92,211.43z"/>
	</g>
	<g>
		<text transform="matrix(1 0 0 1 468.5843 254.3141)"><tspan x="0" y="0" class="st1 st3 st7">Shipper/</tspan><tspan x="5.36" y="12" class="st1 st3 st7">Track/</tspan><tspan x="5.1" y="24" class="st1 st3 st7">Labels</tspan></text>
	</g>
	<g>
		<path class="st1" d="M512.55,238.8h-26.7c-0.31,0-0.56-0.25-0.56-0.56v-18.45c0-0.31,0.25-0.56,0.56-0.56h26.7
			c0.31,0,0.56,0.25,0.56,0.56v18.45C513.11,238.55,512.86,238.8,512.55,238.8z M486.41,237.68h25.58v-17.32h-25.58V237.68z"/>
		<g>
			<rect x="486.41" y="220.36" class="st6" width="25.58" height="17.32"/>
		</g>
		<rect x="488.87" y="221.86" class="st1" width="1.13" height="14.38"/>
		<rect x="493.67" y="221.86" class="st1" width="1.13" height="14.38"/>
		<rect x="490.69" y="221.86" class="st1" width="2.13" height="14.38"/>
		<rect x="500.02" y="221.86" class="st1" width="1.13" height="14.38"/>
		<rect x="501.94" y="221.86" class="st1" width="1.13" height="14.38"/>
		<rect x="505.74" y="221.86" class="st1" width="1.13" height="14.38"/>
		<rect x="496.95" y="221.86" class="st1" width="2.23" height="14.38"/>
		<rect x="507.72" y="221.86" class="st1" width="2.05" height="14.38"/>
	</g>
</g>
<g id="so">
	<text transform="matrix(1 0 0 1 50.0198 254.8802)" class="st1 st3 st7">Sales Order</text>
	<g>
		<rect x="62.18" y="198.18" class="st8" width="31.81" height="40.04"/>
		<line class="st8" x1="77.82" y1="204.21" x2="89.06" y2="204.21"/>
		<line class="st8" x1="77.82" y1="208.6" x2="89.06" y2="208.6"/>
		<line class="st8" x1="68.49" y1="218.75" x2="89.06" y2="218.75"/>
		<line class="st8" x1="68.49" y1="223.96" x2="89.06" y2="223.96"/>
		<line class="st8" x1="68.49" y1="228.89" x2="89.06" y2="228.89"/>
	</g>
	<path class="st1" d="M68.87,208.2c0.11-0.11,0.21-0.2,0.31-0.29c1.62-1.61,3.23-3.23,4.84-4.85c0.31-0.31,0.67-0.46,1.11-0.33
		c0.73,0.21,0.99,1.09,0.51,1.67c-0.04,0.05-0.09,0.1-0.13,0.14c-1.93,1.93-3.85,3.85-5.78,5.78c-0.57,0.57-1.14,0.57-1.72-0.01
		c-0.88-0.88-1.76-1.76-2.64-2.64c-0.34-0.34-0.41-0.78-0.22-1.19c0.18-0.39,0.59-0.63,1.03-0.6c0.29,0.02,0.52,0.16,0.73,0.36
		c0.58,0.59,1.17,1.17,1.76,1.76C68.72,208.06,68.79,208.12,68.87,208.2z"/>
</g>
<g id="ship">
	<g>
		<path class="st5" d="M540.45,79.88c0,3.3-2.7,6-6,6h-92c-3.3,0-6-2.7-6-6v-47c0-3.3,2.7-6,6-6h92c3.3,0,6,2.7,6,6V79.88z"/>
	</g>
	<text transform="matrix(1 0 0 1 475.9292 59.8252)" class="st6 st3 st4">Ship</text>
</g>
<a id="invoice" class="kw_fade" xlink:href="https://www.intacct.com/ia/docs/en_US/help_action/Accounts_Receivable/Invoices/Tasks/create-invoice.htm" >
	<g>
		<g>
			<path class="st5" d="M668.06,79.88c0,3.3-2.7,6-6,6h-92c-3.3,0-6-2.7-6-6v-47c0-3.3,2.7-6,6-6h92c3.3,0,6,2.7,6,6V79.88z"/>
		</g>
		<text transform="matrix(1 0 0 1 595.4457 59.8252)" class="st6 st3 st4">Invoice</text>
	</g>
</a>
<g>
	<g>
		<line class="st9" x1="965.46" y1="48.16" x2="902.03" y2="48.16"/>
		<g>
			<polygon class="st10" points="963.27,40.68 976.22,48.16 963.27,55.64 			"/>
		</g>
	</g>
</g>
<g>
	<g>
		<line class="st9" x1="965.46" y1="253.7" x2="912.79" y2="253.7"/>
		<g>
			<polygon class="st10" points="963.27,246.22 976.22,253.7 963.27,261.18 			"/>
		</g>
		<g>
			<polygon class="st10" points="914.98,246.22 902.03,253.7 914.98,261.18 			"/>
		</g>
	</g>
</g>
<g>
	<g>
		<line class="st9" x1="965.46" y1="354.04" x2="912.79" y2="354.04"/>
		<g>
			<polygon class="st10" points="963.27,346.56 976.22,354.04 963.27,361.51 			"/>
		</g>
		<g>
			<polygon class="st10" points="914.98,346.56 902.03,354.04 914.98,361.51 			"/>
		</g>
	</g>
</g>
<g>
	<g>
		<line class="st9" x1="965.46" y1="454.37" x2="912.79" y2="454.37"/>
		<g>
			<polygon class="st10" points="963.27,446.89 976.22,454.37 963.27,461.85 			"/>
		</g>
		<g>
			<polygon class="st10" points="914.98,446.89 902.03,454.37 914.98,461.85 			"/>
		</g>
	</g>
</g>
<text transform="matrix(1 0 0 1 1080.5166 337.7939)"><tspan x="0" y="0" class="st2 st3 st4">Convert Order</tspan><tspan x="11.66" y="14.4" class="st2 st3 st4">to Shipper</tspan></text>
<text transform="matrix(1 0 0 1 1075.3071 461.4975)"><tspan x="0" y="0" class="st2 st3 st4">Convert Shipper</tspan><tspan x="18.55" y="14.4" class="st2 st3 st4">to Invoice</tspan></text>
<g id="oe_00000151504186929147444100000009523831365483589009_">
	<g>
		<path class="st5" d="M878.82,70.78c0,3.3-2.7,6-6,6h-92c-3.3,0-6-2.7-6-6v-47c0-3.3,2.7-6,6-6h92c3.3,0,6,2.7,6,6V70.78z"/>
	</g>
	<text transform="matrix(1 0 0 1 792.8522 50.7287)" class="st6 st3 st4">Order Entry</text>
</g>
<g id="pick_00000021801540813381503310000000969488721153342393_">
	<g>
		<path class="st5" d="M878.82,173.03c0,3.3-2.7,6-6,6h-92c-3.3,0-6-2.7-6-6v-47c0-3.3,2.7-6,6-6h92c3.3,0,6,2.7,6,6V173.03z"/>
	</g>
	<text transform="matrix(1 0 0 1 815.0563 152.9802)" class="st6 st3 st4">Pick</text>
</g>
<g id="pack_00000082335340000843588360000003019814268398761359_">
	<g>
		<path class="st5" d="M878.82,275.28c0,3.3-2.7,6-6,6h-92c-3.3,0-6-2.7-6-6v-47c0-3.3,2.7-6,6-6h92c3.3,0,6,2.7,6,6V275.28z"/>
	</g>
	<text transform="matrix(1 0 0 1 813.2487 255.2318)" class="st6 st3 st4">Pack</text>
</g>
<g id="picklist_00000050640068579021854300000008232515026958891408_">
	<g>
		<text transform="matrix(1 0 0 1 1000.2266 183.5421)" class="st1 st3 st7">Pick List</text>
	</g>
	<g>
		<g>
			<path class="st1" d="M1038.38,130.27c-0.01-0.11-0.02-0.23-0.07-0.34c-0.05-0.11-0.11-0.21-0.19-0.29
				c-0.01-0.01-0.01-0.03-0.03-0.04l0,0c0,0,0,0,0,0l-4.68-4.71c0,0,0,0,0,0c-0.09-0.09-0.21-0.17-0.33-0.22
				c-0.13-0.05-0.26-0.08-0.4-0.08h-28.35c-0.57,0-1.03,0.46-1.03,1.03v41.58c0,0.57,0.46,1.03,1.03,1.03h33.04
				c0.57,0,1.03-0.46,1.03-1.03v-36.87C1038.39,130.3,1038.38,130.29,1038.38,130.27z"/>
			<g>
				<polygon class="st6" points="1036.51,166.3 1005.18,166.3 1005.18,126.46 1031.51,126.46 1031.5,131.29 1036.51,131.32 				"/>
			</g>
		</g>
		<path class="st1" d="M1032.23,150.11h-21.36c-0.53,0-0.96-0.43-0.96-0.96s0.43-0.96,0.96-0.96h21.36c0.53,0,0.96,0.43,0.96,0.96
			S1032.77,150.11,1032.23,150.11z"/>
		<path class="st1" d="M1032.23,155.52h-21.36c-0.53,0-0.96-0.43-0.96-0.96s0.43-0.96,0.96-0.96h21.36c0.53,0,0.96,0.43,0.96,0.96
			S1032.77,155.52,1032.23,155.52z"/>
		<path class="st1" d="M1032.23,139.22h-21.36c-0.53,0-0.96-0.43-0.96-0.96s0.43-0.96,0.96-0.96h21.36c0.53,0,0.96,0.43,0.96,0.96
			S1032.77,139.22,1032.23,139.22z"/>
		<path class="st1" d="M1019.43,133.41h-8.55c-0.53,0-0.96-0.43-0.96-0.96s0.43-0.96,0.96-0.96h8.55c0.53,0,0.96,0.43,0.96,0.96
			S1019.96,133.41,1019.43,133.41z"/>
		<path class="st1" d="M1032.23,144.63h-21.36c-0.53,0-0.96-0.43-0.96-0.96s0.43-0.96,0.96-0.96h21.36c0.53,0,0.96,0.43,0.96,0.96
			S1032.77,144.63,1032.23,144.63z"/>
		<path class="st1" d="M1032.23,160.65h-4.61c-0.53,0-0.96-0.43-0.96-0.96s0.43-0.96,0.96-0.96h4.61c0.53,0,0.96,0.43,0.96,0.96
			S1032.77,160.65,1032.23,160.65z"/>
	</g>
</g>
<g id="invoiceprint_00000016067018716448011110000001813690406880963774_">
	<g>
		<rect x="1003.22" y="435.72" class="st8" width="31.81" height="40.04"/>
		<line class="st8" x1="1018.86" y1="441.75" x2="1030.1" y2="441.75"/>
		<line class="st8" x1="1018.86" y1="446.14" x2="1030.1" y2="446.14"/>
		<line class="st8" x1="1009.53" y1="456.29" x2="1030.1" y2="456.29"/>
		<line class="st8" x1="1009.53" y1="461.5" x2="1030.1" y2="461.5"/>
		<line class="st8" x1="1009.53" y1="466.43" x2="1030.1" y2="466.43"/>
		<path class="st1" d="M1014.61,446.13c-0.26-0.37-0.65-0.69-1.18-0.96c-0.38-0.19-0.86-0.36-1.41-0.52
			c-0.21-0.06-0.43-0.11-0.67-0.17c-0.38-0.08-0.69-0.17-0.97-0.26c-0.35-0.11-0.62-0.23-0.8-0.34c-0.33-0.21-0.49-0.52-0.49-0.93
			c0-0.44,0.18-0.79,0.53-1.06c0.2-0.16,0.47-0.26,0.77-0.32c0.21-0.05,0.43-0.08,0.69-0.08c0.35,0,0.66,0.06,0.94,0.18
			c0.21,0.08,0.4,0.19,0.56,0.33c0.4,0.34,0.6,0.74,0.6,1.21h0.01c0.04,0.41,0.4,0.74,0.86,0.74s0.81-0.33,0.86-0.74
			c0-0.91-0.35-1.66-1.06-2.25c-0.5-0.41-1.11-0.67-1.82-0.79v-0.56c0-0.45-0.36-0.82-0.82-0.82c-0.45,0-0.82,0.37-0.82,0.82v0.53
			c-0.77,0.1-1.43,0.36-1.96,0.8c-0.69,0.57-1.04,1.26-1.04,2.08c0,0.49,0.12,0.92,0.37,1.28c0.24,0.36,0.62,0.67,1.13,0.92
			c0.39,0.2,0.9,0.38,1.51,0.54c0.18,0.04,0.36,0.09,0.55,0.13c0.42,0.09,0.78,0.19,1.08,0.3c0.31,0.11,0.56,0.23,0.74,0.36
			c0.35,0.26,0.52,0.61,0.52,1.08c0,0.44-0.2,0.79-0.59,1.05c-0.19,0.13-0.42,0.23-0.68,0.29c-0.26,0.07-0.55,0.1-0.88,0.1
			c-0.27,0-0.52-0.03-0.75-0.08c-0.37-0.08-0.69-0.21-0.95-0.42c-0.43-0.34-0.66-0.79-0.69-1.36c-0.04-0.41-0.4-0.74-0.86-0.74
			s-0.81,0.33-0.86,0.74c0,0.59,0.17,1.14,0.52,1.65c0.35,0.51,0.83,0.9,1.45,1.19c0.42,0.19,0.88,0.31,1.38,0.37v0.5
			c0,0.45,0.36,0.82,0.82,0.82c0.45,0,0.82-0.37,0.82-0.82v-0.52c0.74-0.11,1.38-0.35,1.9-0.74c0.71-0.54,1.07-1.26,1.07-2.15
			C1015,446.96,1014.87,446.5,1014.61,446.13z"/>
	</g>
	<g>
		<text transform="matrix(1 0 0 1 1002.8928 492.4203)" class="st1 st3 st7">Invoice</text>
	</g>
</g>
<g id="packlist_00000009565531961784973210000015148859778079303813_">
	<g>
		<text transform="matrix(1 0 0 1 999.4318 286.6271)" class="st1 st3 st7">Pack List</text>
	</g>
	<g>
		<g>
			<path class="st1" d="M1039.09,233.85c-0.01-0.11-0.02-0.23-0.07-0.34c-0.05-0.11-0.11-0.21-0.19-0.29
				c-0.01-0.01-0.01-0.03-0.03-0.04l0,0c0,0,0,0,0,0l-4.68-4.71c0,0,0,0,0,0c-0.09-0.09-0.21-0.17-0.33-0.22
				c-0.13-0.05-0.26-0.08-0.4-0.08h-28.35c-0.57,0-1.03,0.46-1.03,1.03v41.58c0,0.57,0.46,1.03,1.03,1.03h33.04
				c0.57,0,1.03-0.46,1.03-1.03v-36.87C1039.1,233.89,1039.09,233.87,1039.09,233.85z"/>
			<g>
				<polygon class="st6" points="1037.22,269.89 1005.89,269.89 1005.89,230.05 1032.22,230.05 1032.22,234.87 1037.22,234.9
					"/>
			</g>
		</g>
		<path class="st1" d="M1032.95,253.7h-21.36c-0.53,0-0.96-0.43-0.96-0.96s0.43-0.96,0.96-0.96h21.36c0.53,0,0.96,0.43,0.96,0.96
			S1033.48,253.7,1032.95,253.7z"/>
		<path class="st1" d="M1032.95,259.11h-21.36c-0.53,0-0.96-0.43-0.96-0.96s0.43-0.96,0.96-0.96h21.36c0.53,0,0.96,0.43,0.96,0.96
			S1033.48,259.11,1032.95,259.11z"/>
		<path class="st1" d="M1032.95,242.81h-21.36c-0.53,0-0.96-0.43-0.96-0.96s0.43-0.96,0.96-0.96h21.36c0.53,0,0.96,0.43,0.96,0.96
			S1033.48,242.81,1032.95,242.81z"/>
		<path class="st1" d="M1020.14,236.99h-8.55c-0.53,0-0.96-0.43-0.96-0.96s0.43-0.96,0.96-0.96h8.55c0.53,0,0.96,0.43,0.96,0.96
			S1020.67,236.99,1020.14,236.99z"/>
		<path class="st1" d="M1032.95,248.22h-21.36c-0.53,0-0.96-0.43-0.96-0.96s0.43-0.96,0.96-0.96h21.36c0.53,0,0.96,0.43,0.96,0.96
			S1033.48,248.22,1032.95,248.22z"/>
		<path class="st1" d="M1032.95,264.23h-4.61c-0.53,0-0.96-0.43-0.96-0.96s0.43-0.96,0.96-0.96h4.61c0.53,0,0.96,0.43,0.96,0.96
			S1033.48,264.23,1032.95,264.23z"/>
	</g>
</g>
<g id="shipper_00000102510744839777511890000002826053100411704243_">
	<g>
		<g>
			<path class="st1" d="M1034.74,335.26c-0.01-0.09-0.02-0.19-0.06-0.27c-0.04-0.09-0.09-0.17-0.16-0.24
				c-0.01-0.01-0.01-0.02-0.02-0.03l0,0c0,0,0,0,0,0l-3.78-3.81c0,0,0,0,0,0c-0.08-0.08-0.17-0.14-0.27-0.18
				c-0.1-0.04-0.21-0.06-0.32-0.06h-22.93c-0.46,0-0.83,0.37-0.83,0.83v33.62c0,0.46,0.37,0.83,0.83,0.83h26.71
				c0.46,0,0.83-0.37,0.83-0.83V335.3C1034.75,335.28,1034.74,335.27,1034.74,335.26z"/>
			<g>
				<polygon class="st6" points="1033.23,364.39 1007.89,364.39 1007.89,332.18 1029.18,332.18 1029.18,336.08 1033.23,336.1
					"/>
			</g>
		</g>
		<path class="st1" d="M1029.77,351.3h-17.27c-0.43,0-0.78-0.35-0.78-0.78s0.35-0.78,0.78-0.78h17.27c0.43,0,0.78,0.35,0.78,0.78
			S1030.2,351.3,1029.77,351.3z"/>
		<path class="st1" d="M1029.77,342.49h-17.27c-0.43,0-0.78-0.35-0.78-0.78c0-0.43,0.35-0.78,0.78-0.78h17.27
			c0.43,0,0.78,0.35,0.78,0.78C1030.55,342.15,1030.2,342.49,1029.77,342.49z"/>
		<path class="st1" d="M1019.41,337.79h-6.92c-0.43,0-0.78-0.35-0.78-0.78c0-0.43,0.35-0.78,0.78-0.78h6.92
			c0.43,0,0.78,0.35,0.78,0.78C1020.19,337.45,1019.84,337.79,1019.41,337.79z"/>
		<path class="st1" d="M1029.77,346.87h-17.27c-0.43,0-0.78-0.35-0.78-0.78c0-0.43,0.35-0.78,0.78-0.78h17.27
			c0.43,0,0.78,0.35,0.78,0.78C1030.55,346.52,1030.2,346.87,1029.77,346.87z"/>
	</g>
	<g>
		<text transform="matrix(1 0 0 1 989.2083 389.758)"><tspan x="0" y="0" class="st1 st3 st7">Shipper/Track</tspan><tspan x="18.32" y="12" class="st1 st3 st7">Labels</tspan></text>
	</g>
	<g>
		<path class="st1" d="M1046.39,374.25h-26.7c-0.31,0-0.56-0.25-0.56-0.56v-18.45c0-0.31,0.25-0.56,0.56-0.56h26.7
			c0.31,0,0.56,0.25,0.56,0.56v18.45C1046.96,373.99,1046.7,374.25,1046.39,374.25z M1020.26,373.12h25.58V355.8h-25.58V373.12z"/>
		<g>
			<rect x="1020.26" y="355.8" class="st6" width="25.58" height="17.32"/>
		</g>
		<rect x="1022.72" y="357.3" class="st1" width="1.13" height="14.38"/>
		<rect x="1027.51" y="357.3" class="st1" width="1.13" height="14.38"/>
		<rect x="1024.54" y="357.3" class="st1" width="2.13" height="14.38"/>
		<rect x="1033.86" y="357.3" class="st1" width="1.13" height="14.38"/>
		<rect x="1035.78" y="357.3" class="st1" width="1.13" height="14.38"/>
		<rect x="1039.58" y="357.3" class="st1" width="1.13" height="14.38"/>
		<rect x="1030.79" y="357.3" class="st1" width="2.23" height="14.38"/>
		<rect x="1041.57" y="357.3" class="st1" width="2.05" height="14.38"/>
	</g>
</g>
<g id="so_00000137113990397475370800000017670228613204552864_">
	<text transform="matrix(1 0 0 1 992.9432 79.0802)" class="st1 st3 st7">Sales Order</text>
	<g>
		<rect x="1005.11" y="22.38" class="st8" width="31.81" height="40.04"/>
		<line class="st8" x1="1020.74" y1="28.41" x2="1031.98" y2="28.41"/>
		<line class="st8" x1="1020.74" y1="32.8" x2="1031.98" y2="32.8"/>
		<line class="st8" x1="1011.41" y1="42.95" x2="1031.98" y2="42.95"/>
		<line class="st8" x1="1011.41" y1="48.16" x2="1031.98" y2="48.16"/>
		<line class="st8" x1="1011.41" y1="53.09" x2="1031.98" y2="53.09"/>
	</g>
	<path class="st1" d="M1011.79,32.4c0.11-0.11,0.21-0.2,0.31-0.29c1.62-1.61,3.23-3.23,4.84-4.85c0.31-0.31,0.67-0.46,1.11-0.33
		c0.73,0.21,0.99,1.09,0.51,1.67c-0.04,0.05-0.09,0.1-0.13,0.14c-1.93,1.93-3.85,3.85-5.78,5.78c-0.57,0.57-1.14,0.57-1.72-0.01
		c-0.88-0.88-1.76-1.76-2.64-2.64c-0.34-0.34-0.41-0.78-0.22-1.19c0.18-0.39,0.59-0.63,1.03-0.6c0.29,0.02,0.52,0.16,0.73,0.36
		c0.58,0.59,1.17,1.17,1.76,1.76C1011.65,32.26,1011.71,32.32,1011.79,32.4z"/>
</g>
<g id="ship_00000086656392895919673620000012520291430278433966_">
	<g>
		<path class="st5" d="M878.82,377.54c0,3.3-2.7,6-6,6h-92c-3.3,0-6-2.7-6-6v-47c0-3.3,2.7-6,6-6h92c3.3,0,6,2.7,6,6V377.54z"/>
	</g>
	<text transform="matrix(1 0 0 1 814.3033 357.4833)" class="st6 st3 st4">Ship</text>
</g>
<a id="invoice_00000132798628445991217910000011004505911981161889_" xlink:href="https://www.intacct.com/ia/docs/en_US/help_action/Accounts_Receivable/Invoices/Tasks/create-invoice.htm" >
	<g>
		<g>
			<path class="st5" d="M878.82,479.79c0,3.3-2.7,6-6,6h-92c-3.3,0-6-2.7-6-6v-47c0-3.3,2.7-6,6-6h92c3.3,0,6,2.7,6,6V479.79z"/>
		</g>
		<text transform="matrix(1 0 0 1 806.206 459.7349)" class="st6 st3 st4">Invoice</text>
	</g>
</a>
<path class="st11" d="M1355.69,81.19H1308c-10.83,0-19.6-8.78-19.6-19.6V38.56c0-10.83,8.78-19.6,19.6-19.6h47.7
	c10.83,0,19.6,8.78,19.6,19.6v23.03C1375.29,72.42,1366.52,81.19,1355.69,81.19z"/>
<path class="st5" d="M1355.69,164.17H1308c-10.83,0-19.6-8.78-19.6-19.6v-23.03c0-10.83,8.78-19.6,19.6-19.6h47.7
	c10.83,0,19.6,8.78,19.6,19.6v23.03C1375.29,155.39,1366.52,164.17,1355.69,164.17z"/>
<path class="st2" d="M1355.69,247.15H1308c-10.83,0-19.6-8.78-19.6-19.6v-23.03c0-10.83,8.78-19.6,19.6-19.6h47.7
	c10.83,0,19.6,8.78,19.6,19.6v23.03C1375.29,238.37,1366.52,247.15,1355.69,247.15z"/>
<path class="st12" d="M1355.69,330.13H1308c-10.83,0-19.6-8.78-19.6-19.6v-23.03c0-10.83,8.78-19.6,19.6-19.6h47.7
	c10.83,0,19.6,8.78,19.6,19.6v23.03C1375.29,321.35,1366.52,330.13,1355.69,330.13z"/>
<path d="M1473.43,81.42h-47.7c-10.83,0-19.6-8.78-19.6-19.6V38.79c0-10.83,8.78-19.6,19.6-19.6h47.7c10.83,0,19.6,8.78,19.6,19.6
	v23.03C1493.03,72.64,1484.25,81.42,1473.43,81.42z"/>
<path class="st13" d="M1473.43,164.17h-47.7c-10.83,0-19.6-8.78-19.6-19.6v-23.03c0-10.83,8.78-19.6,19.6-19.6h47.7
	c10.83,0,19.6,8.78,19.6,19.6v23.03C1493.03,155.39,1484.25,164.17,1473.43,164.17z"/>
<path class="st1" d="M1473.43,247.15h-47.7c-10.83,0-19.6-8.78-19.6-19.6v-23.03c0-10.83,8.78-19.6,19.6-19.6h47.7
	c10.83,0,19.6,8.78,19.6,19.6v23.03C1493.03,238.37,1484.25,247.15,1473.43,247.15z"/>
<path class="st10" d="M1473.43,330.13h-47.7c-10.83,0-19.6-8.78-19.6-19.6v-23.03c0-10.83,8.78-19.6,19.6-19.6h47.7
	c10.83,0,19.6,8.78,19.6,19.6v23.03C1493.03,321.35,1484.25,330.13,1473.43,330.13z"/>
<path class="st14" d="M1473.43,414.2h-47.7c-10.83,0-19.6-8.78-19.6-19.6v-23.03c0-10.83,8.78-19.6,19.6-19.6h47.7
	c10.83,0,19.6,8.78,19.6,19.6v23.03C1493.03,405.42,1484.25,414.2,1473.43,414.2z"/>
<path class="st6" d="M1473.43,499.26h-47.7c-10.83,0-19.6-8.78-19.6-19.6v-23.03c0-10.83,8.78-19.6,19.6-19.6h47.7
	c10.83,0,19.6,8.78,19.6,19.6v23.03C1493.03,490.48,1484.25,499.26,1473.43,499.26z"/>
<g>
	<path class="st2" d="M1080.76,313.09l-11.88-8.71c39.71-53.06,54.41-116.87,33.82-168.6c-15.52-38.98-39.36-62.6-39.64-62.84l0,0
		c1.24,1.04,30.47,25.86,47.39,67.93c9.99,24.85,13.56,50.55,10.61,76.36C1117.38,249.28,1104.28,281.65,1080.76,313.09z"/>
	<g>
		<polygon class="st2" points="1063.83,293.67 1058.56,328.17 1091.07,315.49 		"/>
	</g>
</g>
<g>
	<path class="st2" d="M1065.14,443.7l-3.66-7.99c3.44-4.24,12.76-11.67,13.58-18.55c1.71-14.23-12.02-24.65-16.23-26.45l0,0
		c2.22,0.95,22.52,8.3,24.09,24.19C1083.92,425.12,1072.64,435.24,1065.14,443.7z"/>
	<g>
		<polygon class="st2" points="1056.76,429.28 1046.96,451.57 1071.17,448.92 		"/>
	</g>
</g>
</svg>
