<?xml version="1.0" encoding="utf-8"?>
<!-- Generator: Adobe Illustrator 26.0.0, SVG Export Plug-In . SVG Version: 6.00 Build 0)  -->
<svg version="1.1" id="Layer_1" xmlns="http://www.w3.org/2000/svg" xmlns:xlink="http://www.w3.org/1999/xlink" x="0px" y="0px"
	 viewBox="0 0 687.5 395" style="enable-background:new 0 0 687.5 395;" xml:space="preserve">
<style type="text/css">
	.st0{fill:none;stroke:#666666;stroke-width:6;stroke-miterlimit:10;}
	.st1{fill:#666666;}
	.st2{fill:#0077C8;}
	.st3{font-family:'OpenSans-Semibold';}
	.st4{font-size:12px;}
	.st5{fill:#FFFFFF;}
	.st6{fill:none;stroke:#666666;stroke-width:2;stroke-linecap:round;stroke-linejoin:round;stroke-miterlimit:10;}
	<!-- Fade buttons on mouseover. -->
	.kw_fade{opacity:1;}
	.kw_fade:hover{opacity:0.7;}

	<!-- Here are the webfonts so OpenSans works. See https://confluence.corp.netsuite.com/display/DOC/Embed+Web+Fonts for details. -->
	@font-face {
		font-family: 'OpenSans';
		font-style: normal;
		font-weight: 400;
		font-display: swap;
		src: local('Open Sans'), local('OpenSans'), url(https://fonts.gstatic.com/s/opensans/v17/mem8YaGs126MiZpBA-UFVZ0b.woff2) format('woff2');
		unicode-range: U+0000-00FF, U+0131, U+0152-0153, U+02BB-02BC, U+02C6, U+02DA, U+02DC, U+2000-206F, U+2074, U+20AC, U+2122, U+2191, U+2193, U+2212, U+2215, U+FEFF, U+FFFD;
	}

	@font-face {
		font-family: 'OpenSans-Italic';
		font-style: italic;
		font-weight: 400;
		font-display: swap;
		src: local('Open Sans Italic'), local('OpenSans-Italic'), url(https://fonts.gstatic.com/s/opensans/v17/mem8YaGs126MiZpBA-UFVZ0b.woff2) format('woff2');
		unicode-range: U+0000-00FF, U+0131, U+0152-0153, U+02BB-02BC, U+02C6, U+02DA, U+02DC, U+2000-206F, U+2074, U+20AC, U+2122, U+2191, U+2193, U+2212, U+2215, U+FEFF, U+FFFD;
	}

	@font-face {
		font-family: 'OpenSans-SemiBold';
		font-style: normal;
		font-weight: 600;
		font-display: swap;
		src: local('Open Sans SemiBold'), local('OpenSans-SemiBold'), url(https://fonts.gstatic.com/s/opensans/v17/mem5YaGs126MiZpBA-UNirkOUuhp.woff2) format('woff2');
		unicode-range: U+0000-00FF, U+0131, U+0152-0153, U+02BB-02BC, U+02C6, U+02DA, U+02DC, U+2000-206F, U+2074, U+20AC, U+2122, U+2191, U+2193, U+2212, U+2215, U+FEFF, U+FFFD;
	}

	@font-face {
		font-family: 'OpenSans-SemiboldItalic';
		font-style: italic;
		font-weight: 600;
		font-display: swap;
		src: local('Open Sans SemiBold Italic'), local('OpenSans-SemiBoldItalic'), url(https://fonts.gstatic.com/s/opensans/v17/memnYaGs126MiZpBA-UFUKXGUdhrIqM.woff2) format('woff2');
		unicode-range: U+0000-00FF, U+0131, U+0152-0153, U+02BB-02BC, U+02C6, U+02DA, U+02DC, U+2000-206F, U+2074, U+20AC, U+2122, U+2191, U+2193, U+2212, U+2215, U+FEFF, U+FFFD;
	}

	@font-face {
		font-family: 'OpenSans-Bold';
		font-style: normal;
		font-weight: 700;
		font-display: swap;
		src: local('Open Sans Bold'), local('OpenSans-Bold'), url(https://fonts.gstatic.com/s/opensans/v17/mem5YaGs126MiZpBA-UN7rgOUuhp.woff2) format('woff2');
		unicode-range: U+0000-00FF, U+0131, U+0152-0153, U+02BB-02BC, U+02C6, U+02DA, U+02DC, U+2000-206F, U+2074, U+20AC, U+2122, U+2191, U+2193, U+2212, U+2215, U+FEFF, U+FFFD;
	}

	@font-face {
		font-family: 'OpenSans-BoldItalic';
		font-style: italic;
		font-weight: 700;
		font-display: swap;
		src: local('Open Sans Bold Italic'), local('OpenSans-BoldItalic'), url(https://fonts.gstatic.com/s/opensans/v17/memnYaGs126MiZpBA-UFUKWiUNhrIqM.woff2) format('woff2');
		unicode-range: U+0000-00FF, U+0131, U+0152-0153, U+02BB-02BC, U+02C6, U+02DA, U+02DC, U+2000-206F, U+2074, U+20AC, U+2122, U+2191, U+2193, U+2212, U+2215, U+FEFF, U+FFFD;
	}

	@font-face {
		font-family: 'OpenSans-Extrabold';
		font-style: normal;
		font-weight: 800;
		font-display: swap;
		src: local('Open Sans ExtraBold'), local('OpenSans-Extrabold'), url(https://fonts.gstatic.com/s/opensans/v17/mem5YaGs126MiZpBA-UN8rsOUuhp.woff2) format('woff2');
		unicode-range: U+0000-00FF, U+0131, U+0152-0153, U+02BB-02BC, U+02C6, U+02DA, U+02DC, U+2000-206F, U+2074, U+20AC, U+2122, U+2191, U+2193, U+2212, U+2215, U+FEFF, U+FFFD;
	}

	@font-face {
		font-family: 'OpenSans-ExtraboldItalic';
		font-style: italic;
		font-weight: 800;
		font-display: swap;
		src: local('Open Sans ExtraBold Italic'), local('OpenSans-ExtraBoldItalic'), url(https://fonts.gstatic.com/s/opensans/v17/memnYaGs126MiZpBA-UFUKW-U9hrIqM.woff2) format('woff2');
		unicode-range: U+0000-00FF, U+0131, U+0152-0153, U+02BB-02BC, U+02C6, U+02DA, U+02DC, U+2000-206F, U+2074, U+20AC, U+2122, U+2191, U+2193, U+2212, U+2215, U+FEFF, U+FFFD;
	}
</style>
<g id="arrows">
	<g>
		<g>
			<line class="st0" x1="78.19" y1="175.68" x2="78.19" y2="104.02"/>
			<g>
				<polygon class="st1" points="85.67,173.49 78.19,186.45 70.71,173.49 				"/>
			</g>
		</g>
	</g>
	<g>
		<g>
			<line class="st0" x1="355.87" y1="175.68" x2="355.87" y2="116.94"/>
			<g>
				<polygon class="st1" points="363.35,173.49 355.87,186.45 348.39,173.49 				"/>
			</g>
			<g>
				<polygon class="st1" points="364.84,119.56 355.87,104.02 346.89,119.56 				"/>
			</g>
		</g>
	</g>
	<g>
		<g>
			<line class="st0" x1="488.45" y1="175.68" x2="488.45" y2="116.94"/>
			<g>
				<polygon class="st1" points="495.93,173.49 488.45,186.45 480.97,173.49 				"/>
			</g>
			<g>
				<polygon class="st1" points="497.42,119.56 488.45,104.02 479.47,119.56 				"/>
			</g>
		</g>
	</g>
	<g>
		<g>
			<line class="st0" x1="616.06" y1="175.68" x2="616.06" y2="116.94"/>
			<g>
				<polygon class="st1" points="623.54,173.49 616.06,186.45 608.58,173.49 				"/>
			</g>
			<g>
				<polygon class="st1" points="625.04,119.56 616.06,104.02 607.09,119.56 				"/>
			</g>
		</g>
	</g>
</g>
<g id="converttoshipper">
	<text transform="matrix(1 0 0 1 196.8873 353.7841)" class="st2 st3 st4">Convert Order to Shipper</text>
	<g>
		<path class="st2" d="M274.62,329.49c-76.22,0-140.49-15.8-168.68-31.32l0,0c26.86,14.78,94.65,24.72,168.68,24.72
			c63.32,0,119.82-7.89,153.16-19.5l3.48,8.44C397.25,323.67,338.63,329.49,274.62,329.49z"/>
		<g>
			<polygon class="st2" points="423.62,299.23 443.17,301.97 431.02,317.53 			"/>
		</g>
	</g>
</g>
<g id="converttoinvoice">
	<text transform="matrix(1 0 0 1 512.6094 346.3358)"><tspan x="0" y="0" class="st2 st3 st4">Convert Shipper</tspan><tspan x="18.55" y="14.4" class="st2 st3 st4">to Invoice</tspan></text>
	<g>
		<path class="st2" d="M551.15,313.8c-17.23,0-30.16-11.39-40.17-21.71l0,0c8.68,8.95,24.94,14.83,40.27,14.83
			c10.22,0,17.11-2.64,25.24-7l3.97,7.2C571.29,312.03,562.55,313.8,551.15,313.8z"/>
		<g>
			<polygon class="st2" points="569.97,295.75 591.32,293.43 582.65,313.08 			"/>
		</g>
	</g>
</g>
<g id="oe">
	<g>
		<path class="st2" d="M130.19,79.88c0,3.3-2.7,6-6,6h-92c-3.3,0-6-2.7-6-6v-47c0-3.3,2.7-6,6-6h92c3.3,0,6,2.7,6,6V79.88z"/>
	</g>
	<text transform="matrix(1 0 0 1 44.2186 59.8252)" class="st5 st3 st4">Order Entry</text>
</g>
<g id="pick">
	<g>
		<path class="st2" d="M271.57,79.88c0,3.3-2.7,6-6,6h-92c-3.3,0-6-2.7-6-6v-47c0-3.3,2.7-6,6-6h92c3.3,0,6,2.7,6,6V79.88z"/>
	</g>
	<text transform="matrix(1 0 0 1 207.7995 59.8252)" class="st5 st3 st4">Pick</text>
</g>
<g id="pack">
	<g>
		<path class="st2" d="M407.87,79.88c0,3.3-2.7,6-6,6h-92c-3.3,0-6-2.7-6-6v-47c0-3.3,2.7-6,6-6h92c3.3,0,6,2.7,6,6V79.88z"/>
	</g>
	<text transform="matrix(1 0 0 1 342.2953 59.8252)" class="st5 st3 st4">Pack</text>
</g>
<g id="picklist">
	<text transform="matrix(1 0 0 1 194.4595 282.2804)" class="st1 st3 st4">Pick List</text>
	<g>
		<g>
			<path class="st1" d="M246.94,207.3c-0.01-0.18-0.04-0.36-0.11-0.53c-0.07-0.17-0.18-0.32-0.3-0.46
				c-0.02-0.02-0.02-0.04-0.04-0.06l0,0c0,0,0,0,0,0l-7.3-7.35c0,0,0,0,0,0c-0.15-0.15-0.32-0.27-0.52-0.35
				c-0.2-0.08-0.41-0.12-0.62-0.12h-44.26c-0.89,0-1.61,0.72-1.61,1.61v64.9c0,0.89,0.72,1.61,1.61,1.61h51.57
				c0.89,0,1.61-0.72,1.61-1.61v-57.55C246.95,207.35,246.94,207.33,246.94,207.3z"/>
			<g>
				<polygon class="st5" points="244.02,263.55 195.12,263.55 195.12,201.36 236.22,201.36 236.21,208.88 244.02,208.93 				"/>
			</g>
		</g>
		<path class="st1" d="M237.35,238.27h-33.34c-0.83,0-1.5-0.67-1.5-1.5s0.67-1.5,1.5-1.5h33.34c0.83,0,1.5,0.67,1.5,1.5
			S238.18,238.27,237.35,238.27z"/>
		<path class="st1" d="M237.35,246.72h-33.34c-0.83,0-1.5-0.67-1.5-1.5s0.67-1.5,1.5-1.5h33.34c0.83,0,1.5,0.67,1.5,1.5
			S238.18,246.72,237.35,246.72z"/>
		<path class="st1" d="M237.35,221.27h-33.34c-0.83,0-1.5-0.67-1.5-1.5s0.67-1.5,1.5-1.5h33.34c0.83,0,1.5,0.67,1.5,1.5
			S238.18,221.27,237.35,221.27z"/>
		<path class="st1" d="M217.36,212.2h-13.35c-0.83,0-1.5-0.67-1.5-1.5s0.67-1.5,1.5-1.5h13.35c0.83,0,1.5,0.67,1.5,1.5
			S218.18,212.2,217.36,212.2z"/>
		<path class="st1" d="M237.35,229.72h-33.34c-0.83,0-1.5-0.67-1.5-1.5s0.67-1.5,1.5-1.5h33.34c0.83,0,1.5,0.67,1.5,1.5
			S238.18,229.72,237.35,229.72z"/>
		<path class="st1" d="M237.35,254.72h-7.2c-0.83,0-1.5-0.67-1.5-1.5s0.67-1.5,1.5-1.5h7.2c0.83,0,1.5,0.67,1.5,1.5
			S238.18,254.72,237.35,254.72z"/>
	</g>
</g>
<g id="invoiceprint">
	<g>
		<rect x="591.23" y="201.16" class="st6" width="49.66" height="62.5"/>
		<line class="st6" x1="615.63" y1="210.58" x2="633.19" y2="210.58"/>
		<line class="st6" x1="615.63" y1="217.43" x2="633.19" y2="217.43"/>
		<line class="st6" x1="601.08" y1="233.27" x2="633.19" y2="233.27"/>
		<line class="st6" x1="601.08" y1="241.4" x2="633.19" y2="241.4"/>
		<line class="st6" x1="601.08" y1="249.11" x2="633.19" y2="249.11"/>
		<path class="st1" d="M609.01,217.42c-0.4-0.58-1.01-1.08-1.84-1.49c-0.6-0.3-1.34-0.57-2.2-0.81c-0.33-0.09-0.67-0.18-1.04-0.26
			c-0.59-0.13-1.08-0.27-1.51-0.4c-0.54-0.17-0.97-0.35-1.25-0.54c-0.51-0.33-0.77-0.81-0.77-1.46c0-0.68,0.27-1.24,0.82-1.66
			c0.32-0.25,0.73-0.4,1.2-0.5c0.33-0.07,0.68-0.13,1.08-0.13c0.54,0,1.03,0.1,1.46,0.27c0.32,0.13,0.62,0.3,0.88,0.52
			c0.62,0.53,0.93,1.16,0.93,1.89h0.01c0.07,0.64,0.63,1.15,1.33,1.15c0.71,0,1.27-0.51,1.33-1.15c0-1.42-0.55-2.59-1.65-3.51
			c-0.78-0.65-1.73-1.05-2.84-1.24v-0.88c0-0.7-0.57-1.27-1.27-1.27s-1.27,0.57-1.27,1.27v0.82c-1.2,0.15-2.23,0.57-3.07,1.25
			c-1.08,0.89-1.62,1.97-1.62,3.25c0,0.77,0.19,1.43,0.57,1.99c0.38,0.56,0.97,1.04,1.76,1.44c0.62,0.31,1.41,0.59,2.36,0.84
			c0.27,0.07,0.56,0.14,0.86,0.2c0.66,0.14,1.22,0.3,1.69,0.46c0.49,0.18,0.88,0.36,1.16,0.57c0.54,0.4,0.82,0.96,0.82,1.68
			c0,0.68-0.31,1.23-0.92,1.64c-0.3,0.2-0.65,0.35-1.05,0.46c-0.41,0.1-0.87,0.16-1.38,0.16c-0.43,0-0.81-0.05-1.17-0.13
			c-0.57-0.12-1.07-0.33-1.48-0.66c-0.67-0.52-1.03-1.23-1.07-2.13c-0.07-0.64-0.63-1.15-1.33-1.15s-1.27,0.51-1.33,1.15
			c0,0.92,0.27,1.78,0.82,2.58c0.54,0.79,1.3,1.41,2.26,1.85c0.65,0.3,1.37,0.49,2.15,0.58v0.78c0,0.7,0.57,1.27,1.27,1.27
			s1.27-0.57,1.27-1.27v-0.8c1.16-0.17,2.15-0.55,2.97-1.16c1.12-0.84,1.67-1.96,1.67-3.35C609.61,218.71,609.41,218,609.01,217.42z
			"/>
	</g>
	<text transform="matrix(1 0 0 1 596.9173 282.2804)" class="st1 st3 st4">Invoice</text>
</g>
<g id="packlist">
	<text transform="matrix(1 0 0 1 328.9553 282.2804)" class="st1 st3 st4">Pack List</text>
	<g>
		<g>
			<path class="st1" d="M383.24,207.3c-0.01-0.18-0.04-0.36-0.11-0.53c-0.07-0.17-0.18-0.32-0.3-0.46
				c-0.02-0.02-0.02-0.04-0.04-0.06l0,0c0,0,0,0,0,0l-7.3-7.35c0,0,0,0,0,0c-0.15-0.15-0.32-0.27-0.52-0.35
				c-0.2-0.08-0.41-0.12-0.62-0.12h-44.26c-0.89,0-1.61,0.72-1.61,1.61v64.9c0,0.89,0.72,1.61,1.61,1.61h51.57
				c0.89,0,1.61-0.72,1.61-1.61v-57.55C383.26,207.35,383.24,207.33,383.24,207.3z"/>
			<g>
				<polygon class="st5" points="380.32,263.55 331.42,263.55 331.42,201.36 372.52,201.36 372.51,208.88 380.32,208.93 				"/>
			</g>
		</g>
		<path class="st1" d="M373.65,238.27h-33.34c-0.83,0-1.5-0.67-1.5-1.5s0.67-1.5,1.5-1.5h33.34c0.83,0,1.5,0.67,1.5,1.5
			S374.48,238.27,373.65,238.27z"/>
		<path class="st1" d="M373.65,246.72h-33.34c-0.83,0-1.5-0.67-1.5-1.5s0.67-1.5,1.5-1.5h33.34c0.83,0,1.5,0.67,1.5,1.5
			S374.48,246.72,373.65,246.72z"/>
		<path class="st1" d="M373.65,221.27h-33.34c-0.83,0-1.5-0.67-1.5-1.5s0.67-1.5,1.5-1.5h33.34c0.83,0,1.5,0.67,1.5,1.5
			S374.48,221.27,373.65,221.27z"/>
		<path class="st1" d="M353.66,212.2h-13.35c-0.83,0-1.5-0.67-1.5-1.5s0.67-1.5,1.5-1.5h13.35c0.83,0,1.5,0.67,1.5,1.5
			S354.49,212.2,353.66,212.2z"/>
		<path class="st1" d="M373.65,229.72h-33.34c-0.83,0-1.5-0.67-1.5-1.5s0.67-1.5,1.5-1.5h33.34c0.83,0,1.5,0.67,1.5,1.5
			S374.48,229.72,373.65,229.72z"/>
		<path class="st1" d="M373.65,254.72h-7.2c-0.83,0-1.5-0.67-1.5-1.5s0.67-1.5,1.5-1.5h7.2c0.83,0,1.5,0.67,1.5,1.5
			S374.48,254.72,373.65,254.72z"/>
	</g>
</g>
<g id="shipper">
	<g>
		<g>
			<path class="st1" d="M501.05,204.6c-0.01-0.14-0.03-0.29-0.09-0.43c-0.06-0.14-0.15-0.26-0.24-0.37
				c-0.01-0.02-0.02-0.04-0.03-0.05l0,0c0,0,0,0,0,0l-5.91-5.94c0,0,0,0,0,0c-0.12-0.12-0.26-0.22-0.42-0.28
				c-0.16-0.07-0.33-0.1-0.5-0.1h-35.79c-0.72,0-1.3,0.58-1.3,1.3v52.49c0,0.72,0.58,1.3,1.3,1.3h41.7c0.72,0,1.3-0.58,1.3-1.3
				v-46.54C501.07,204.64,501.05,204.62,501.05,204.6z"/>
			<g>
				<polygon class="st5" points="498.69,250.08 459.15,250.08 459.15,199.79 492.38,199.79 492.37,205.88 498.69,205.92 				"/>
			</g>
		</g>
		<path class="st1" d="M493.3,229.64h-26.96c-0.67,0-1.21-0.54-1.21-1.21c0-0.67,0.54-1.21,1.21-1.21h26.96
			c0.67,0,1.21,0.54,1.21,1.21C494.51,229.1,493.97,229.64,493.3,229.64z"/>
		<path class="st1" d="M493.3,215.9h-26.96c-0.67,0-1.21-0.54-1.21-1.21s0.54-1.21,1.21-1.21h26.96c0.67,0,1.21,0.54,1.21,1.21
			S493.97,215.9,493.3,215.9z"/>
		<path class="st1" d="M477.13,208.56h-10.8c-0.67,0-1.21-0.54-1.21-1.21c0-0.67,0.54-1.21,1.21-1.21h10.8
			c0.67,0,1.21,0.54,1.21,1.21C478.34,208.02,477.8,208.56,477.13,208.56z"/>
		<path class="st1" d="M493.3,222.73h-26.96c-0.67,0-1.21-0.54-1.21-1.21s0.54-1.21,1.21-1.21h26.96c0.67,0,1.21,0.54,1.21,1.21
			S493.97,222.73,493.3,222.73z"/>
	</g>
	<text transform="matrix(1 0 0 1 458.0312 282.2804)"><tspan x="0" y="0" class="st1 st3 st4">Shipper/</tspan><tspan x="6.44" y="14.4" class="st1 st3 st4">Track/</tspan><tspan x="6.12" y="28.8" class="st1 st3 st4">Labels</tspan></text>
	<g>
		<path class="st1" d="M519.25,265.46h-41.68c-0.49,0-0.88-0.39-0.88-0.88v-28.79c0-0.49,0.39-0.88,0.88-0.88h41.68
			c0.49,0,0.88,0.39,0.88,0.88v28.79C520.13,265.07,519.73,265.46,519.25,265.46z M478.45,263.7h39.92v-27.04h-39.92V263.7z"/>
		<g>
			<rect x="478.45" y="236.67" class="st5" width="39.92" height="27.04"/>
		</g>
		<rect x="482.29" y="239.01" class="st1" width="1.76" height="22.45"/>
		<rect x="489.77" y="239.01" class="st1" width="1.76" height="22.45"/>
		<rect x="485.13" y="239.01" class="st1" width="3.33" height="22.45"/>
		<rect x="499.68" y="239.01" class="st1" width="1.76" height="22.45"/>
		<rect x="502.69" y="239.01" class="st1" width="1.76" height="22.45"/>
		<rect x="508.61" y="239.01" class="st1" width="1.76" height="22.45"/>
		<rect x="494.89" y="239.01" class="st1" width="3.48" height="22.45"/>
		<rect x="511.72" y="239.01" class="st1" width="3.19" height="22.45"/>
	</g>
</g>
<g id="so">
	<text transform="matrix(1 0 0 1 44.7079 282.2804)" class="st1 st3 st4">Sales Order</text>
	<g>
		<rect x="53.62" y="201.16" class="st6" width="49.66" height="62.5"/>
		<line class="st6" x1="78.03" y1="210.58" x2="95.58" y2="210.58"/>
		<line class="st6" x1="78.03" y1="217.43" x2="95.58" y2="217.43"/>
		<line class="st6" x1="63.47" y1="233.27" x2="95.58" y2="233.27"/>
		<line class="st6" x1="63.47" y1="241.4" x2="95.58" y2="241.4"/>
		<line class="st6" x1="63.47" y1="249.11" x2="95.58" y2="249.11"/>
	</g>
	<path class="st1" d="M64.06,216.8c0.17-0.16,0.33-0.31,0.48-0.46c2.52-2.52,5.04-5.04,7.56-7.57c0.49-0.49,1.05-0.71,1.73-0.52
		c1.14,0.33,1.55,1.7,0.79,2.6c-0.06,0.08-0.14,0.15-0.21,0.22c-3.01,3.01-6.01,6.01-9.02,9.02c-0.89,0.89-1.79,0.88-2.68-0.01
		c-1.37-1.37-2.75-2.74-4.11-4.12c-0.53-0.53-0.65-1.21-0.35-1.85c0.28-0.61,0.93-0.99,1.61-0.93c0.45,0.03,0.82,0.24,1.13,0.56
		c0.91,0.92,1.83,1.83,2.74,2.75C63.83,216.59,63.93,216.69,64.06,216.8z"/>
</g>
<g id="ship">
	<g>
		<path class="st2" d="M540.45,79.88c0,3.3-2.7,6-6,6h-92c-3.3,0-6-2.7-6-6v-47c0-3.3,2.7-6,6-6h92c3.3,0,6,2.7,6,6V79.88z"/>
	</g>
	<text transform="matrix(1 0 0 1 475.9292 59.8252)" class="st5 st3 st4">Ship</text>
</g>
<a id="invoice" class="kw_fade" xlink:href="https://www.intacct.com/ia/docs/en_US/help_action/Accounts_Receivable/Invoices/Tasks/create-invoice.htm" target="_blank">
	<g>
		<g>
			<path class="st2" d="M668.06,79.88c0,3.3-2.7,6-6,6h-92c-3.3,0-6-2.7-6-6v-47c0-3.3,2.7-6,6-6h92c3.3,0,6,2.7,6,6V79.88z"/>
		</g>
		<text transform="matrix(1 0 0 1 595.4457 59.8252)" class="st5 st3 st4">Invoice</text>
	</g>
</a>
</svg>
