<?xml version="1.0" encoding="utf-8"?>
<!-- Generator: Adobe Illustrator 26.0.0, SVG Export Plug-In . SVG Version: 6.00 Build 0)  -->
<svg version="1.1" id="Layer_1" xmlns="http://www.w3.org/2000/svg" xmlns:xlink="http://www.w3.org/1999/xlink" x="0px" y="0px"
	 width="687.5px" height="351.8px" viewBox="0 0 687.5 351.8" style="enable-background:new 0 0 687.5 351.8;" xml:space="preserve"
	>
<style type="text/css">
	.st0{fill:none;stroke:#666666;stroke-width:6;stroke-miterlimit:10;}
	.st1{fill:#666666;}
	.st2{fill:#00A376;}
	.st3{font-family:'OpenSans-Semibold';}
	.st4{font-size:12px;}
	.st5{fill:#0077C8;}
	.st6{fill:#FFFFFF;}
	.st7{font-size:10px;}
	.st8{fill:none;stroke:#666666;stroke-width:2;stroke-linecap:round;stroke-linejoin:round;stroke-miterlimit:10;}
	<!-- Fade buttons on mouseover. -->
	.kwfade{opacity:1;}
	.kwfade:hover{opacity:0.7;}

	<!-- Here are the webfonts so OpenSans works. See https://confluence.corp.netsuite.com/display/DOC/Embed+Web+Fonts for details. -->
	@font-face {
		font-family: 'OpenSans';
		font-style: normal;
		font-weight: 400;
		font-display: swap;
		src: local('Open Sans'), local('OpenSans'), url(https://fonts.gstatic.com/s/opensans/v17/mem8YaGs126MiZpBA-UFVZ0b.woff2) format('woff2');
		unicode-range: U+0000-00FF, U+0131, U+0152-0153, U+02BB-02BC, U+02C6, U+02DA, U+02DC, U+2000-206F, U+2074, U+20AC, U+2122, U+2191, U+2193, U+2212, U+2215, U+FEFF, U+FFFD;
	}

	@font-face {
		font-family: 'OpenSans-Italic';
		font-style: italic;
		font-weight: 400;
		font-display: swap;
		src: local('Open Sans Italic'), local('OpenSans-Italic'), url(https://fonts.gstatic.com/s/opensans/v17/mem8YaGs126MiZpBA-UFVZ0b.woff2) format('woff2');
		unicode-range: U+0000-00FF, U+0131, U+0152-0153, U+02BB-02BC, U+02C6, U+02DA, U+02DC, U+2000-206F, U+2074, U+20AC, U+2122, U+2191, U+2193, U+2212, U+2215, U+FEFF, U+FFFD;
	}

	@font-face {
		font-family: 'OpenSans-SemiBold';
		font-style: normal;
		font-weight: 600;
		font-display: swap;
		src: local('Open Sans SemiBold'), local('OpenSans-SemiBold'), url(https://fonts.gstatic.com/s/opensans/v17/mem5YaGs126MiZpBA-UNirkOUuhp.woff2) format('woff2');
		unicode-range: U+0000-00FF, U+0131, U+0152-0153, U+02BB-02BC, U+02C6, U+02DA, U+02DC, U+2000-206F, U+2074, U+20AC, U+2122, U+2191, U+2193, U+2212, U+2215, U+FEFF, U+FFFD;
	}

	@font-face {
		font-family: 'OpenSans-SemiboldItalic';
		font-style: italic;
		font-weight: 600;
		font-display: swap;
		src: local('Open Sans SemiBold Italic'), local('OpenSans-SemiBoldItalic'), url(https://fonts.gstatic.com/s/opensans/v17/memnYaGs126MiZpBA-UFUKXGUdhrIqM.woff2) format('woff2');
		unicode-range: U+0000-00FF, U+0131, U+0152-0153, U+02BB-02BC, U+02C6, U+02DA, U+02DC, U+2000-206F, U+2074, U+20AC, U+2122, U+2191, U+2193, U+2212, U+2215, U+FEFF, U+FFFD;
	}

	@font-face {
		font-family: 'OpenSans-Bold';
		font-style: normal;
		font-weight: 700;
		font-display: swap;
		src: local('Open Sans Bold'), local('OpenSans-Bold'), url(https://fonts.gstatic.com/s/opensans/v17/mem5YaGs126MiZpBA-UN7rgOUuhp.woff2) format('woff2');
		unicode-range: U+0000-00FF, U+0131, U+0152-0153, U+02BB-02BC, U+02C6, U+02DA, U+02DC, U+2000-206F, U+2074, U+20AC, U+2122, U+2191, U+2193, U+2212, U+2215, U+FEFF, U+FFFD;
	}

	@font-face {
		font-family: 'OpenSans-BoldItalic';
		font-style: italic;
		font-weight: 700;
		font-display: swap;
		src: local('Open Sans Bold Italic'), local('OpenSans-BoldItalic'), url(https://fonts.gstatic.com/s/opensans/v17/memnYaGs126MiZpBA-UFUKWiUNhrIqM.woff2) format('woff2');
		unicode-range: U+0000-00FF, U+0131, U+0152-0153, U+02BB-02BC, U+02C6, U+02DA, U+02DC, U+2000-206F, U+2074, U+20AC, U+2122, U+2191, U+2193, U+2212, U+2215, U+FEFF, U+FFFD;
	}

	@font-face {
		font-family: 'OpenSans-Extrabold';
		font-style: normal;
		font-weight: 800;
		font-display: swap;
		src: local('Open Sans ExtraBold'), local('OpenSans-Extrabold'), url(https://fonts.gstatic.com/s/opensans/v17/mem5YaGs126MiZpBA-UN8rsOUuhp.woff2) format('woff2');
		unicode-range: U+0000-00FF, U+0131, U+0152-0153, U+02BB-02BC, U+02C6, U+02DA, U+02DC, U+2000-206F, U+2074, U+20AC, U+2122, U+2191, U+2193, U+2212, U+2215, U+FEFF, U+FFFD;
	}

	@font-face {
		font-family: 'OpenSans-ExtraboldItalic';
		font-style: italic;
		font-weight: 800;
		font-display: swap;
		src: local('Open Sans ExtraBold Italic'), local('OpenSans-ExtraBoldItalic'), url(https://fonts.gstatic.com/s/opensans/v17/memnYaGs126MiZpBA-UFUKW-U9hrIqM.woff2) format('woff2');
		unicode-range: U+0000-00FF, U+0131, U+0152-0153, U+02BB-02BC, U+02C6, U+02DA, U+02DC, U+2000-206F, U+2074, U+20AC, U+2122, U+2191, U+2193, U+2212, U+2215, U+FEFF, U+FFFD;
	}
</style>
<g id="arrows">
	<g>
		<g>
			<line class="st0" x1="78.19" y1="170.43" x2="78.19" y2="107"/>
			<g>
				<polygon class="st1" points="85.67,168.24 78.19,181.19 70.71,168.24 				"/>
			</g>
		</g>
	</g>
	<g>
		<g>
			<line class="st0" x1="355.87" y1="170.43" x2="355.87" y2="119.91"/>
			<g>
				<polygon class="st1" points="363.35,168.24 355.87,181.19 348.39,168.24 				"/>
			</g>
			<g>
				<polygon class="st1" points="364.84,122.54 355.87,107 346.89,122.54 				"/>
			</g>
		</g>
	</g>
	<g>
		<g>
			<line class="st0" x1="488.45" y1="170.43" x2="488.45" y2="119.91"/>
			<g>
				<polygon class="st1" points="495.93,168.24 488.45,181.19 480.97,168.24 				"/>
			</g>
			<g>
				<polygon class="st1" points="497.42,122.54 488.45,107 479.47,122.54 				"/>
			</g>
		</g>
	</g>
	<g>
		<g>
			<line class="st0" x1="616.06" y1="170.43" x2="616.06" y2="119.91"/>
			<g>
				<polygon class="st1" points="623.54,168.24 616.06,181.19 608.58,168.24 				"/>
			</g>
			<g>
				<polygon class="st1" points="625.04,122.54 616.06,107 607.09,122.54 				"/>
			</g>
		</g>
	</g>
</g>
<g id="converttoshipper">
	<g>
		<text transform="matrix(1 0 0 1 209.2617 319.3589)" class="st2 st3 st4">Convert Order to Shipper</text>
	</g>
	<g>
		<path class="st2" d="M287.22,293.89c-79.89,0-147.27-16.57-176.81-32.83l0,0c28.16,15.5,99.21,25.91,176.81,25.91
			c66.37,0,125.6-8.27,160.54-20.45l3.64,8.85C415.77,287.8,354.32,293.89,287.22,293.89z"/>
		<g>
			<polygon class="st2" points="443.4,262.17 463.9,265.05 451.16,281.36 			"/>
		</g>
	</g>
</g>
<g id="converttoinvoice">
	<text transform="matrix(1 0 0 1 521.5472 321.0116)"><tspan x="0" y="0" class="st2 st3 st4">Convert Shipper</tspan><tspan x="18.55" y="14.4" class="st2 st3 st4">to Invoice</tspan></text>
	<g>
		<path class="st2" d="M560.09,288.47c-17.23,0-30.16-11.39-40.17-21.71l0,0c8.68,8.95,24.94,14.83,40.27,14.83
			c10.22,0,17.11-2.64,25.24-7l3.97,7.2C580.23,286.7,571.49,288.47,560.09,288.47z"/>
		<g>
			<polygon class="st2" points="578.9,270.43 600.26,268.11 591.59,287.76 			"/>
		</g>
	</g>
</g>
<g id="oe">
	<g>
		<path class="st5" d="M130.19,79.88c0,3.3-2.7,6-6,6h-92c-3.3,0-6-2.7-6-6v-47c0-3.3,2.7-6,6-6h92c3.3,0,6,2.7,6,6V79.88z"/>
	</g>
	<text transform="matrix(1 0 0 1 44.2186 59.8252)" class="st6 st3 st4">Order Entry</text>
</g>
<g id="pick">
	<g>
		<path class="st5" d="M271.57,79.88c0,3.3-2.7,6-6,6h-92c-3.3,0-6-2.7-6-6v-47c0-3.3,2.7-6,6-6h92c3.3,0,6,2.7,6,6V79.88z"/>
	</g>
	<text transform="matrix(1 0 0 1 207.7995 59.8252)" class="st6 st3 st4">Pick</text>
</g>
<g id="pack">
	<g>
		<path class="st5" d="M407.87,79.88c0,3.3-2.7,6-6,6h-92c-3.3,0-6-2.7-6-6v-47c0-3.3,2.7-6,6-6h92c3.3,0,6,2.7,6,6V79.88z"/>
	</g>
	<text transform="matrix(1 0 0 1 342.2953 59.8252)" class="st6 st3 st4">Pack</text>
</g>
<g id="picklist">
	<g>
		<text transform="matrix(1 0 0 1 197.4104 255.2034)" class="st1 st3 st7">Pick List</text>
	</g>
	<g>
		<g>
			<path class="st1" d="M235.56,201.93c-0.01-0.11-0.02-0.23-0.07-0.34c-0.05-0.11-0.11-0.21-0.19-0.29
				c-0.01-0.01-0.01-0.03-0.03-0.04l0,0c0,0,0,0,0,0l-4.68-4.71c0,0,0,0,0,0c-0.09-0.09-0.21-0.17-0.33-0.22
				c-0.13-0.05-0.26-0.08-0.4-0.08h-28.35c-0.57,0-1.03,0.46-1.03,1.03v41.58c0,0.57,0.46,1.03,1.03,1.03h33.04
				c0.57,0,1.03-0.46,1.03-1.03v-36.87C235.57,201.97,235.56,201.95,235.56,201.93z"/>
			<g>
				<polygon class="st6" points="233.69,237.96 202.37,237.96 202.37,198.13 228.69,198.13 228.69,202.95 233.69,202.98 				"/>
			</g>
		</g>
		<path class="st1" d="M229.42,221.77h-21.36c-0.53,0-0.96-0.43-0.96-0.96s0.43-0.96,0.96-0.96h21.36c0.53,0,0.96,0.43,0.96,0.96
			S229.95,221.77,229.42,221.77z"/>
		<path class="st1" d="M229.42,227.18h-21.36c-0.53,0-0.96-0.43-0.96-0.96s0.43-0.96,0.96-0.96h21.36c0.53,0,0.96,0.43,0.96,0.96
			S229.95,227.18,229.42,227.18z"/>
		<path class="st1" d="M229.42,210.88h-21.36c-0.53,0-0.96-0.43-0.96-0.96s0.43-0.96,0.96-0.96h21.36c0.53,0,0.96,0.43,0.96,0.96
			S229.95,210.88,229.42,210.88z"/>
		<path class="st1" d="M216.61,205.07h-8.55c-0.53,0-0.96-0.43-0.96-0.96s0.43-0.96,0.96-0.96h8.55c0.53,0,0.96,0.43,0.96,0.96
			S217.14,205.07,216.61,205.07z"/>
		<path class="st1" d="M229.42,216.29h-21.36c-0.53,0-0.96-0.43-0.96-0.96s0.43-0.96,0.96-0.96h21.36c0.53,0,0.96,0.43,0.96,0.96
			S229.95,216.29,229.42,216.29z"/>
		<path class="st1" d="M229.42,232.31h-4.61c-0.53,0-0.96-0.43-0.96-0.96s0.43-0.96,0.96-0.96h4.61c0.53,0,0.96,0.43,0.96,0.96
			S229.95,232.31,229.42,232.31z"/>
	</g>
</g>
<g id="invoiceprint">
	<g>
		<rect x="600.27" y="197.48" class="st8" width="31.81" height="40.04"/>
		<line class="st8" x1="615.9" y1="203.52" x2="627.14" y2="203.52"/>
		<line class="st8" x1="615.9" y1="207.91" x2="627.14" y2="207.91"/>
		<line class="st8" x1="606.57" y1="218.05" x2="627.14" y2="218.05"/>
		<line class="st8" x1="606.57" y1="223.26" x2="627.14" y2="223.26"/>
		<line class="st8" x1="606.57" y1="228.2" x2="627.14" y2="228.2"/>
		<path class="st1" d="M611.65,207.9c-0.26-0.37-0.65-0.69-1.18-0.96c-0.38-0.19-0.86-0.36-1.41-0.52
			c-0.21-0.06-0.43-0.11-0.67-0.17c-0.38-0.08-0.69-0.17-0.97-0.26c-0.35-0.11-0.62-0.23-0.8-0.34c-0.33-0.21-0.49-0.52-0.49-0.93
			c0-0.44,0.18-0.79,0.53-1.06c0.2-0.16,0.47-0.26,0.77-0.32c0.21-0.05,0.43-0.08,0.69-0.08c0.35,0,0.66,0.06,0.94,0.18
			c0.21,0.08,0.4,0.19,0.56,0.33c0.4,0.34,0.6,0.74,0.6,1.21h0.01c0.04,0.41,0.4,0.74,0.86,0.74s0.81-0.33,0.86-0.74
			c0-0.91-0.35-1.66-1.06-2.25c-0.5-0.41-1.11-0.67-1.82-0.79v-0.56c0-0.45-0.37-0.82-0.82-0.82s-0.82,0.37-0.82,0.82v0.53
			c-0.77,0.1-1.43,0.36-1.96,0.8c-0.69,0.57-1.04,1.26-1.04,2.08c0,0.49,0.12,0.92,0.36,1.28c0.24,0.36,0.62,0.67,1.13,0.92
			c0.39,0.2,0.9,0.38,1.51,0.54c0.18,0.04,0.36,0.09,0.55,0.13c0.42,0.09,0.78,0.19,1.08,0.3c0.31,0.11,0.56,0.23,0.74,0.36
			c0.35,0.26,0.52,0.61,0.52,1.08c0,0.44-0.2,0.79-0.59,1.05c-0.19,0.13-0.42,0.23-0.68,0.29c-0.26,0.07-0.55,0.1-0.88,0.1
			c-0.27,0-0.52-0.03-0.75-0.08c-0.37-0.08-0.69-0.21-0.95-0.42c-0.43-0.34-0.66-0.79-0.69-1.36c-0.04-0.41-0.4-0.74-0.86-0.74
			c-0.45,0-0.81,0.33-0.86,0.74c0,0.59,0.17,1.14,0.52,1.65c0.35,0.51,0.83,0.9,1.45,1.19c0.42,0.19,0.88,0.31,1.38,0.37v0.5
			c0,0.45,0.37,0.82,0.82,0.82s0.82-0.37,0.82-0.82v-0.52c0.74-0.11,1.38-0.35,1.9-0.74c0.71-0.54,1.07-1.26,1.07-2.15
			C612.04,208.73,611.91,208.27,611.65,207.9z"/>
	</g>
	<g>
		<text transform="matrix(1 0 0 1 599.9359 254.1864)" class="st1 st3 st7">Invoice</text>
	</g>
</g>
<g id="packlist">
	<g>
		<text transform="matrix(1 0 0 1 332.593 254.8318)" class="st1 st3 st7">Pack List</text>
	</g>
	<g>
		<g>
			<path class="st1" d="M372.25,202.06c-0.01-0.11-0.02-0.23-0.07-0.34c-0.05-0.11-0.11-0.21-0.19-0.29
				c-0.01-0.01-0.01-0.03-0.03-0.04l0,0c0,0,0,0,0,0l-4.68-4.71c0,0,0,0,0,0c-0.09-0.09-0.21-0.17-0.33-0.22
				c-0.13-0.05-0.26-0.08-0.4-0.08H338.2c-0.57,0-1.03,0.46-1.03,1.03v41.58c0,0.57,0.46,1.03,1.03,1.03h33.04
				c0.57,0,1.03-0.46,1.03-1.03v-36.87C372.26,202.09,372.25,202.08,372.25,202.06z"/>
			<g>
				<polygon class="st6" points="370.38,238.09 339.06,238.09 339.06,198.25 365.38,198.25 365.38,203.08 370.38,203.11 				"/>
			</g>
		</g>
		<path class="st1" d="M366.11,221.9h-21.36c-0.53,0-0.96-0.43-0.96-0.96s0.43-0.96,0.96-0.96h21.36c0.53,0,0.96,0.43,0.96,0.96
			S366.64,221.9,366.11,221.9z"/>
		<path class="st1" d="M366.11,227.31h-21.36c-0.53,0-0.96-0.43-0.96-0.96s0.43-0.96,0.96-0.96h21.36c0.53,0,0.96,0.43,0.96,0.96
			S366.64,227.31,366.11,227.31z"/>
		<path class="st1" d="M366.11,211.01h-21.36c-0.53,0-0.96-0.43-0.96-0.96s0.43-0.96,0.96-0.96h21.36c0.53,0,0.96,0.43,0.96,0.96
			S366.64,211.01,366.11,211.01z"/>
		<path class="st1" d="M353.3,205.2h-8.55c-0.53,0-0.96-0.43-0.96-0.96s0.43-0.96,0.96-0.96h8.55c0.53,0,0.96,0.43,0.96,0.96
			S353.83,205.2,353.3,205.2z"/>
		<path class="st1" d="M366.11,216.42h-21.36c-0.53,0-0.96-0.43-0.96-0.96s0.43-0.96,0.96-0.96h21.36c0.53,0,0.96,0.43,0.96,0.96
			S366.64,216.42,366.11,216.42z"/>
		<path class="st1" d="M366.11,232.44h-4.61c-0.53,0-0.96-0.43-0.96-0.96s0.43-0.96,0.96-0.96h4.61c0.53,0,0.96,0.43,0.96,0.96
			S366.64,232.44,366.11,232.44z"/>
	</g>
</g>
<g id="shipper">
	<g>
		<g>
			<path class="st1" d="M500.89,199.81c-0.01-0.09-0.02-0.19-0.06-0.27c-0.04-0.09-0.09-0.17-0.16-0.24
				c-0.01-0.01-0.01-0.02-0.02-0.03l0,0c0,0,0,0,0,0l-3.78-3.81c0,0,0,0,0,0c-0.08-0.08-0.17-0.14-0.27-0.18
				c-0.1-0.04-0.21-0.06-0.32-0.06h-22.93c-0.46,0-0.83,0.37-0.83,0.83v33.62c0,0.46,0.37,0.83,0.83,0.83h26.71
				c0.46,0,0.83-0.37,0.83-0.83v-29.81C500.9,199.84,500.89,199.83,500.89,199.81z"/>
			<g>
				<polygon class="st6" points="499.38,228.95 474.05,228.95 474.05,196.73 495.34,196.73 495.33,200.63 499.38,200.66 				"/>
			</g>
		</g>
		<path class="st1" d="M495.92,215.86h-17.27c-0.43,0-0.78-0.35-0.78-0.78c0-0.43,0.35-0.78,0.78-0.78h17.27
			c0.43,0,0.78,0.35,0.78,0.78C496.7,215.51,496.35,215.86,495.92,215.86z"/>
		<path class="st1" d="M495.92,207.05h-17.27c-0.43,0-0.78-0.35-0.78-0.78s0.35-0.78,0.78-0.78h17.27c0.43,0,0.78,0.35,0.78,0.78
			S496.35,207.05,495.92,207.05z"/>
		<path class="st1" d="M485.57,202.35h-6.92c-0.43,0-0.78-0.35-0.78-0.78c0-0.43,0.35-0.78,0.78-0.78h6.92
			c0.43,0,0.78,0.35,0.78,0.78C486.34,202,486,202.35,485.57,202.35z"/>
		<path class="st1" d="M495.92,211.43h-17.27c-0.43,0-0.78-0.35-0.78-0.78c0-0.43,0.35-0.78,0.78-0.78h17.27
			c0.43,0,0.78,0.35,0.78,0.78C496.7,211.08,496.35,211.43,495.92,211.43z"/>
	</g>
	<g>
		<text transform="matrix(1 0 0 1 468.5843 254.3141)"><tspan x="0" y="0" class="st1 st3 st7">Shipper/</tspan><tspan x="5.36" y="12" class="st1 st3 st7">Track/</tspan><tspan x="5.1" y="24" class="st1 st3 st7">Labels</tspan></text>
	</g>
	<g>
		<path class="st1" d="M512.55,238.8h-26.7c-0.31,0-0.56-0.25-0.56-0.56v-18.45c0-0.31,0.25-0.56,0.56-0.56h26.7
			c0.31,0,0.56,0.25,0.56,0.56v18.45C513.11,238.55,512.86,238.8,512.55,238.8z M486.41,237.68h25.58v-17.32h-25.58V237.68z"/>
		<g>
			<rect x="486.41" y="220.36" class="st6" width="25.58" height="17.32"/>
		</g>
		<rect x="488.87" y="221.86" class="st1" width="1.13" height="14.38"/>
		<rect x="493.67" y="221.86" class="st1" width="1.13" height="14.38"/>
		<rect x="490.69" y="221.86" class="st1" width="2.13" height="14.38"/>
		<rect x="500.02" y="221.86" class="st1" width="1.13" height="14.38"/>
		<rect x="501.94" y="221.86" class="st1" width="1.13" height="14.38"/>
		<rect x="505.74" y="221.86" class="st1" width="1.13" height="14.38"/>
		<rect x="496.95" y="221.86" class="st1" width="2.23" height="14.38"/>
		<rect x="507.72" y="221.86" class="st1" width="2.05" height="14.38"/>
	</g>
</g>
<g id="so">
	<text transform="matrix(1 0 0 1 50.0198 254.8802)" class="st1 st3 st7">Sales Order</text>
	<g>
		<rect x="62.18" y="198.18" class="st8" width="31.81" height="40.04"/>
		<line class="st8" x1="77.82" y1="204.21" x2="89.06" y2="204.21"/>
		<line class="st8" x1="77.82" y1="208.6" x2="89.06" y2="208.6"/>
		<line class="st8" x1="68.49" y1="218.75" x2="89.06" y2="218.75"/>
		<line class="st8" x1="68.49" y1="223.96" x2="89.06" y2="223.96"/>
		<line class="st8" x1="68.49" y1="228.89" x2="89.06" y2="228.89"/>
	</g>
	<path class="st1" d="M68.87,208.2c0.11-0.11,0.21-0.2,0.31-0.29c1.62-1.61,3.23-3.23,4.84-4.85c0.31-0.31,0.67-0.46,1.11-0.33
		c0.73,0.21,0.99,1.09,0.51,1.67c-0.04,0.05-0.09,0.1-0.13,0.14c-1.93,1.93-3.85,3.85-5.78,5.78c-0.57,0.57-1.14,0.57-1.72-0.01
		c-0.88-0.88-1.76-1.76-2.64-2.64c-0.34-0.34-0.41-0.78-0.22-1.19c0.18-0.39,0.59-0.63,1.03-0.6c0.29,0.02,0.52,0.16,0.73,0.36
		c0.58,0.59,1.17,1.17,1.76,1.76C68.72,208.06,68.79,208.12,68.87,208.2z"/>
</g>
<g id="ship">
	<g>
		<path class="st5" d="M540.45,79.88c0,3.3-2.7,6-6,6h-92c-3.3,0-6-2.7-6-6v-47c0-3.3,2.7-6,6-6h92c3.3,0,6,2.7,6,6V79.88z"/>
	</g>
	<text transform="matrix(1 0 0 1 475.9292 59.8252)" class="st6 st3 st4">Ship</text>
</g>
<a id="invoice" class="kwfade" xlink:href="https://www.intacct.com/ia/docs/en_US/help_action/Accounts_Receivable/Invoices/Tasks/create-invoice.htm" target="_blank">
	<g>
		<g>
			<path class="st5" d="M668.06,79.88c0,3.3-2.7,6-6,6h-92c-3.3,0-6-2.7-6-6v-47c0-3.3,2.7-6,6-6h92c3.3,0,6,2.7,6,6V79.88z"/>
		</g>
		<text transform="matrix(1 0 0 1 595.4457 59.8252)" class="st6 st3 st4">Invoice</text>
	</g>
</a>
</svg>
